<svg width="40" height="40" viewBox="0 0 40 40" fill="none" xmlns="http://www.w3.org/2000/svg">
<circle cx="20" cy="20" r="20" fill="#7DD8DE" fill-opacity="0.16"/>
<g clip-path="url(#clip0_437_162)">
<path d="M29.3298 13.7303C29.326 13.7236 29.3192 13.7202 29.3153 13.7139C29.3003 13.6916 29.2829 13.6728 29.2626 13.6549C29.2559 13.6501 29.2515 13.6448 29.2452 13.6404C29.2128 13.6162 29.1771 13.5964 29.1364 13.5872L19.1528 11.2496C19.1006 11.238 19.0435 11.2404 18.9903 11.2569L11.8688 13.594C11.8485 13.6012 11.8325 13.6148 11.8146 13.6254C11.803 13.6322 11.789 13.6336 11.7789 13.6414C11.776 13.6438 11.7745 13.6481 11.7716 13.6506C11.7687 13.6535 11.7639 13.6539 11.761 13.6573L8.09965 16.9498C7.99232 17.0474 7.96863 17.2075 8.04356 17.3307C8.09771 17.4211 8.19682 17.4772 8.30222 17.4772C8.33896 17.4772 8.37426 17.4705 8.40762 17.4584L11.6614 16.2458V25.9941C11.6614 26.1323 11.7547 26.2527 11.8891 26.2861L21.5377 28.7479C21.5609 28.7547 21.5861 28.7581 21.6141 28.7581C21.6475 28.7581 21.6804 28.7527 21.7118 28.7426L28.9324 26.2798C29.0552 26.2387 29.1374 26.1236 29.1374 25.9941V19.6785L31.7965 18.7579C31.8821 18.728 31.9488 18.6632 31.9807 18.5786C32.0126 18.494 32.0054 18.4011 31.9599 18.3223L29.3298 13.7303ZM11.6604 15.5994L9.68495 16.3362L11.6604 14.5585V15.5994ZM21.311 28.0667L12.2652 25.7591V14.2747L21.311 16.6979V28.0667ZM21.603 16.1496L13.0219 13.8512L19.0981 11.8574L27.9829 13.9373L21.603 16.1496ZM28.5321 25.7775L21.9153 28.0333V17.0967L24.6261 21.0075C24.6832 21.0888 24.776 21.1381 24.8751 21.1381C24.9066 21.1381 24.9399 21.1323 24.9742 21.1216L28.5321 19.8888V25.7775ZM24.9926 20.4738L22.276 16.5557L28.93 14.2486L31.2531 18.3059L24.9926 20.4738Z" fill="#17C3CE"/>
</g>
<defs>
<clipPath id="clip0_437_162">
<rect width="24" height="24" fill="white" transform="translate(8 8)"/>
</clipPath>
</defs>
</svg>
