<svg width="109" height="109" viewBox="0 0 109 109" fill="none" xmlns="http://www.w3.org/2000/svg">
<circle cx="54.5" cy="54.5" r="54.5" fill="#7DD8DE" fill-opacity="0.16"/>
<g clip-path="url(#clip0_547_242)">
<path d="M79.9246 37.4153C79.9141 37.3968 79.8956 37.3876 79.8851 37.3705C79.8442 37.3099 79.7968 37.2585 79.7415 37.2097C79.723 37.1966 79.7112 37.1821 79.694 37.1702C79.6058 37.1043 79.5083 37.0503 79.3976 37.0253L52.1921 30.6554C52.0498 30.6237 51.8943 30.6303 51.7494 30.6751L32.3432 37.0437C32.2879 37.0635 32.2444 37.1004 32.1957 37.1294C32.1641 37.1478 32.1258 37.1518 32.0982 37.1728C32.0903 37.1794 32.0863 37.1913 32.0784 37.1979C32.0705 37.2058 32.0573 37.2071 32.0494 37.2163L22.0723 46.1882C21.7798 46.4543 21.7153 46.8904 21.9195 47.2264C22.067 47.4727 22.3371 47.6256 22.6243 47.6256C22.7245 47.6256 22.8206 47.6071 22.9115 47.5742L31.778 44.27V70.8339C31.778 71.2107 32.0323 71.5388 32.3986 71.6297L58.6911 78.3382C58.7543 78.3566 58.8228 78.3658 58.8993 78.3658C58.9902 78.3658 59.0798 78.3513 59.1654 78.3237L78.8416 71.6125C79.1763 71.5006 79.4002 71.187 79.4002 70.8339V53.624L86.6463 51.1155C86.8795 51.0338 87.0613 50.8573 87.1482 50.6267C87.2352 50.3962 87.2154 50.1432 87.0916 49.9285L79.9246 37.4153ZM31.7754 42.5086L26.3923 44.5164L31.7754 39.6721V42.5086ZM58.0732 76.4819L33.4235 70.1936V38.8987L58.0732 45.5018V76.4819ZM58.869 44.0078L35.4854 37.7446L52.0432 32.3114L76.2542 37.9791L58.869 44.0078ZM77.7508 70.2437L59.72 76.391V46.5887L67.107 57.2456C67.2625 57.467 67.5154 57.6014 67.7855 57.6014C67.8712 57.6014 67.9621 57.5856 68.0556 57.5566L77.7508 54.197V70.2437ZM68.1057 55.7912L60.7029 45.1145L78.8351 38.8276L85.1654 49.8837L68.1057 55.7912Z" fill="#17C3CE"/>
</g>
<defs>
<clipPath id="clip0_547_242">
<rect width="65.4" height="65.4" fill="white" transform="translate(21.7998 21.8)"/>
</clipPath>
</defs>
</svg>
