<svg width="75" height="22" viewBox="0 0 75 22" fill="none" xmlns="http://www.w3.org/2000/svg">
<path d="M5.992 16.24C4.84 16.24 3.85333 15.9893 3.032 15.488C2.21067 14.9813 1.57867 14.2773 1.136 13.376C0.698667 12.4747 0.48 11.4293 0.48 10.24C0.48 9.05067 0.698667 8.00533 1.136 7.104C1.57867 6.20267 2.21067 5.50133 3.032 5C3.85333 4.49333 4.84 4.24 5.992 4.24C7.32 4.24 8.42667 4.57333 9.312 5.24C10.1973 5.90133 10.8187 6.79467 11.176 7.92L9.232 8.456C9.008 7.704 8.62667 7.11733 8.088 6.696C7.54933 6.26933 6.85067 6.056 5.992 6.056C5.21867 6.056 4.57333 6.22933 4.056 6.576C3.544 6.92267 3.15733 7.41067 2.896 8.04C2.64 8.664 2.50933 9.39733 2.504 10.24C2.504 11.0827 2.632 11.8187 2.888 12.448C3.14933 13.072 3.53867 13.5573 4.056 13.904C4.57333 14.2507 5.21867 14.424 5.992 14.424C6.85067 14.424 7.54933 14.2107 8.088 13.784C8.62667 13.3573 9.008 12.7707 9.232 12.024L11.176 12.56C10.8187 13.6853 10.1973 14.5813 9.312 15.248C8.42667 15.9093 7.32 16.24 5.992 16.24ZM16.7485 16.24C15.8845 16.24 15.1298 16.0453 14.4845 15.656C13.8392 15.2667 13.3378 14.7307 12.9805 14.048C12.6285 13.36 12.4525 12.5707 12.4525 11.68C12.4525 10.7733 12.6338 9.97867 12.9965 9.296C13.3592 8.61333 13.8632 8.08 14.5085 7.696C15.1538 7.312 15.9005 7.12 16.7485 7.12C17.6178 7.12 18.3752 7.31467 19.0205 7.704C19.6658 8.09333 20.1672 8.632 20.5245 9.32C20.8818 10.0027 21.0605 10.7893 21.0605 11.68C21.0605 12.576 20.8792 13.368 20.5165 14.056C20.1592 14.7387 19.6578 15.2747 19.0125 15.664C18.3672 16.048 17.6125 16.24 16.7485 16.24ZM16.7485 14.432C17.5165 14.432 18.0872 14.176 18.4605 13.664C18.8338 13.152 19.0205 12.4907 19.0205 11.68C19.0205 10.8427 18.8312 10.176 18.4525 9.68C18.0738 9.17867 17.5058 8.928 16.7485 8.928C16.2312 8.928 15.8045 9.04533 15.4685 9.28C15.1378 9.50933 14.8925 9.832 14.7325 10.248C14.5725 10.6587 14.4925 11.136 14.4925 11.68C14.4925 12.5173 14.6818 13.1867 15.0605 13.688C15.4445 14.184 16.0072 14.432 16.7485 14.432ZM26.9751 16.24C26.1325 16.24 25.4258 16.04 24.8551 15.64C24.2845 15.24 23.8551 14.696 23.5671 14.008C23.2791 13.3147 23.1351 12.5387 23.1351 11.68C23.1351 10.8107 23.2791 10.032 23.5671 9.344C23.8551 8.656 24.2765 8.11467 24.8311 7.72C25.3911 7.32 26.0818 7.12 26.9031 7.12C27.7191 7.12 28.4258 7.32 29.0231 7.72C29.6258 8.11467 30.0925 8.656 30.4231 9.344C30.7538 10.0267 30.9191 10.8053 30.9191 11.68C30.9191 12.544 30.7565 13.32 30.4311 14.008C30.1058 14.696 29.6471 15.24 29.0551 15.64C28.4631 16.04 27.7698 16.24 26.9751 16.24ZM22.8071 19.84V7.36H24.5111V13.424H24.7511V19.84H22.8071ZM26.6791 14.512C27.1805 14.512 27.5938 14.3867 27.9191 14.136C28.2445 13.8853 28.4845 13.5467 28.6391 13.12C28.7991 12.688 28.8791 12.208 28.8791 11.68C28.8791 11.1573 28.7991 10.6827 28.6391 10.256C28.4791 9.824 28.2311 9.48267 27.8951 9.232C27.5591 8.976 27.1325 8.848 26.6151 8.848C26.1245 8.848 25.7245 8.968 25.4151 9.208C25.1058 9.44267 24.8765 9.77333 24.7271 10.2C24.5831 10.6213 24.5111 11.1147 24.5111 11.68C24.5111 12.24 24.5831 12.7333 24.7271 13.16C24.8765 13.5867 25.1085 13.92 25.4231 14.16C25.7431 14.3947 26.1618 14.512 26.6791 14.512ZM33.506 19.84L35.17 15.272L35.202 16.616L31.434 7.36H33.442L36.114 14.208H35.602L38.202 7.36H40.13L35.314 19.84H33.506Z" fill="#17C3CE"/>
<g clip-path="url(#clip0_42_3602)">
<path d="M55.75 0H65.375C66.8918 0 68.125 1.23105 68.125 2.75V12.375C68.125 13.8939 66.8939 15.125 65.375 15.125H55.75C54.2311 15.125 53 13.8939 53 12.375V2.75C53 1.23105 54.2332 0 55.75 0ZM55.0625 12.375C55.0625 12.7541 55.3709 13.0625 55.75 13.0625H65.375C65.7531 13.0625 66.0625 12.7531 66.0625 12.375V2.75C66.0625 2.37093 65.7541 2.0625 65.375 2.0625H55.75C55.3709 2.0625 55.0625 2.37093 55.0625 2.75V12.375ZM61.9375 19.25C61.9375 19.6291 62.2459 19.9375 62.625 19.9375H72.25C72.6291 19.9375 72.9375 19.6291 72.9375 19.25V9.625C72.9375 9.24593 72.6291 8.9375 72.25 8.9375H69.5V6.875H72.25C73.7689 6.875 75 8.1082 75 9.625V19.25C75 20.7689 73.7689 22 72.25 22H62.625C61.1061 22 59.875 20.7689 59.875 19.25V16.5H61.9375V19.25Z" fill="#17C3CE"/>
</g>
<defs>
<clipPath id="clip0_42_3602">
<rect width="22" height="22" fill="white" transform="matrix(-1 0 0 1 75 0)"/>
</clipPath>
</defs>
</svg>
