<svg width="36" height="36" viewBox="0 0 36 36" fill="none" xmlns="http://www.w3.org/2000/svg">
<path d="M17.4375 4.5H11.8125C11.6633 4.5 11.5202 4.44074 11.4148 4.33525C11.3093 4.22976 11.25 4.08668 11.25 3.9375C11.25 3.78832 11.3093 3.64524 11.4148 3.53975C11.5202 3.43426 11.6633 3.375 11.8125 3.375H17.4375C17.5867 3.375 17.7298 3.43426 17.8352 3.53975C17.9407 3.64524 18 3.78832 18 3.9375C18 4.08668 17.9407 4.22976 17.8352 4.33525C17.7298 4.44074 17.5867 4.5 17.4375 4.5ZM15.1875 32.625H14.0625C13.9133 32.625 13.7702 32.5657 13.6648 32.4602C13.5593 32.3548 13.5 32.2117 13.5 32.0625C13.5 31.9133 13.5593 31.7702 13.6648 31.6648C13.7702 31.5593 13.9133 31.5 14.0625 31.5H15.1875C15.3367 31.5 15.4798 31.5593 15.5852 31.6648C15.6907 31.7702 15.75 31.9133 15.75 32.0625C15.75 32.2117 15.6907 32.3548 15.5852 32.4602C15.4798 32.5657 15.3367 32.625 15.1875 32.625Z" fill="#17C3CE"/>
<path d="M20.8125 34.875H8.4375C7.69176 34.8744 6.97674 34.5779 6.44942 34.0506C5.9221 33.5233 5.6256 32.8082 5.625 32.0625V3.9375C5.625 2.38613 6.88613 1.125 8.4375 1.125H20.8125C22.3639 1.125 23.625 2.38613 23.625 3.9375V9.5625C23.625 9.71168 23.5657 9.85476 23.4602 9.96025C23.3548 10.0657 23.2117 10.125 23.0625 10.125C22.9133 10.125 22.7702 10.0657 22.6648 9.96025C22.5593 9.85476 22.5 9.71168 22.5 9.5625V3.9375C22.5 3.00713 21.7429 2.25 20.8125 2.25H8.4375C7.50713 2.25 6.75 3.00713 6.75 3.9375V32.0625C6.75 32.9929 7.50713 33.75 8.4375 33.75H20.8125C21.7429 33.75 22.5 32.9929 22.5 32.0625V20.8125C22.5 20.6633 22.5593 20.5202 22.6648 20.4148C22.7702 20.3093 22.9133 20.25 23.0625 20.25C23.2117 20.25 23.3548 20.3093 23.4602 20.4148C23.5657 20.5202 23.625 20.6633 23.625 20.8125V32.0625C23.625 33.6139 22.3639 34.875 20.8125 34.875Z" fill="#17C3CE"/>
<path d="M32.0625 19.125H10.6875C10.5383 19.125 10.3952 19.0657 10.2898 18.9602C10.1843 18.8548 10.125 18.7117 10.125 18.5625V11.8125C10.125 11.6633 10.1843 11.5202 10.2898 11.4148C10.3952 11.3093 10.5383 11.25 10.6875 11.25H32.0625C32.2117 11.25 32.3548 11.3093 32.4602 11.4148C32.5657 11.5202 32.625 11.6633 32.625 11.8125V18.5625C32.625 18.7117 32.5657 18.8548 32.4602 18.9602C32.3548 19.0657 32.2117 19.125 32.0625 19.125ZM11.25 18H31.5V12.375H11.25V18Z" fill="#17C3CE"/>
<path d="M29.4827 15.9829C29.4827 16.0941 29.4497 16.2028 29.388 16.2952C29.3262 16.3877 29.2385 16.4597 29.1358 16.5024C29.0331 16.545 28.9201 16.5562 28.8111 16.5346C28.702 16.5131 28.6018 16.4597 28.5231 16.3812L26.9323 14.7904C26.8299 14.6843 26.7732 14.5423 26.7744 14.3948C26.7757 14.2473 26.8349 14.1062 26.9392 14.0019C27.0435 13.8976 27.1845 13.8385 27.332 13.8372C27.4795 13.8359 27.6216 13.8926 27.7277 13.9951L29.3184 15.5858C29.3706 15.6379 29.412 15.6998 29.4402 15.768C29.4683 15.8361 29.4828 15.9092 29.4827 15.9829Z" fill="#17C3CE"/>
<path d="M27.3294 16.5454C27.2183 16.5454 27.1096 16.5124 27.0172 16.4507C26.9247 16.389 26.8526 16.3012 26.81 16.1985C26.7674 16.0959 26.7562 15.9829 26.7777 15.8738C26.7993 15.7648 26.8527 15.6645 26.9312 15.5858L28.5219 13.9951C28.628 13.8926 28.7701 13.8359 28.9176 13.8372C29.0651 13.8385 29.2062 13.8976 29.3105 14.0019C29.4148 14.1062 29.4739 14.2473 29.4752 14.3948C29.4765 14.5423 29.4198 14.6843 29.3173 14.7904L27.7266 16.3812C27.6744 16.4334 27.6125 16.4747 27.5444 16.5029C27.4762 16.5311 27.4032 16.5455 27.3294 16.5454ZM24.9827 15.9829C24.9827 16.0941 24.9497 16.2028 24.888 16.2952C24.8262 16.3877 24.7385 16.4597 24.6358 16.5024C24.5331 16.545 24.4201 16.5562 24.3111 16.5346C24.202 16.5131 24.1018 16.4597 24.0231 16.3812L22.4323 14.7904C22.3299 14.6843 22.2732 14.5423 22.2744 14.3948C22.2757 14.2473 22.3349 14.1062 22.4392 14.0019C22.5435 13.8976 22.6845 13.8385 22.832 13.8372C22.9795 13.8359 23.1216 13.8926 23.2277 13.9951L24.8184 15.5858C24.8706 15.6379 24.912 15.6998 24.9402 15.768C24.9683 15.8361 24.9828 15.9092 24.9827 15.9829Z" fill="#17C3CE"/>
<path d="M22.8294 16.5454C22.7183 16.5454 22.6096 16.5124 22.5172 16.4507C22.4247 16.389 22.3526 16.3012 22.31 16.1985C22.2674 16.0959 22.2562 15.9829 22.2777 15.8738C22.2993 15.7648 22.3527 15.6645 22.4312 15.5858L24.0219 13.9951C24.128 13.8926 24.2701 13.8359 24.4176 13.8372C24.5651 13.8385 24.7062 13.8976 24.8105 14.0019C24.9148 14.1062 24.9739 14.2473 24.9752 14.3948C24.9765 14.5423 24.9198 14.6843 24.8173 14.7904L23.2266 16.3812C23.1744 16.4334 23.1125 16.4747 23.0444 16.5029C22.9762 16.5311 22.9032 16.5455 22.8294 16.5454ZM20.4827 15.9829C20.4827 16.0941 20.4497 16.2028 20.388 16.2952C20.3262 16.3877 20.2385 16.4597 20.1358 16.5024C20.0331 16.545 19.9201 16.5562 19.8111 16.5346C19.702 16.5131 19.6018 16.4597 19.5231 16.3812L17.9323 14.7904C17.8299 14.6843 17.7732 14.5423 17.7744 14.3948C17.7757 14.2473 17.8349 14.1062 17.9392 14.0019C18.0435 13.8976 18.1845 13.8385 18.332 13.8372C18.4795 13.8359 18.6216 13.8926 18.7277 13.9951L20.3184 15.5858C20.3706 15.6379 20.412 15.6998 20.4402 15.768C20.4683 15.8361 20.4828 15.9092 20.4827 15.9829Z" fill="#17C3CE"/>
<path d="M18.3294 16.5454C18.2183 16.5454 18.1096 16.5124 18.0172 16.4507C17.9247 16.389 17.8526 16.3012 17.81 16.1985C17.7674 16.0959 17.7562 15.9829 17.7777 15.8738C17.7993 15.7648 17.8527 15.6645 17.9312 15.5858L19.5219 13.9951C19.628 13.8926 19.7701 13.8359 19.9176 13.8372C20.0651 13.8385 20.2062 13.8976 20.3105 14.0019C20.4148 14.1062 20.4739 14.2473 20.4752 14.3948C20.4765 14.5423 20.4198 14.6843 20.3173 14.7904L18.7266 16.3812C18.6744 16.4334 18.6125 16.4747 18.5444 16.5029C18.4762 16.5311 18.4032 16.5455 18.3294 16.5454ZM15.9827 15.9829C15.9827 16.0941 15.9497 16.2028 15.888 16.2952C15.8262 16.3877 15.7385 16.4597 15.6358 16.5024C15.5331 16.545 15.4201 16.5562 15.3111 16.5346C15.202 16.5131 15.1018 16.4597 15.0231 16.3812L13.4323 14.7904C13.3299 14.6843 13.2732 14.5423 13.2744 14.3948C13.2757 14.2473 13.3349 14.1062 13.4392 14.0019C13.5435 13.8976 13.6845 13.8385 13.832 13.8372C13.9795 13.8359 14.1216 13.8926 14.2277 13.9951L15.8184 15.5858C15.8706 15.6379 15.912 15.6998 15.9402 15.768C15.9683 15.8361 15.9828 15.9092 15.9827 15.9829Z" fill="#17C3CE"/>
<path d="M13.83 16.5454C13.7188 16.5454 13.6101 16.5124 13.5177 16.4507C13.4252 16.389 13.3532 16.3012 13.3105 16.1985C13.2679 16.0959 13.2567 15.9829 13.2783 15.8738C13.2998 15.7648 13.3532 15.6645 13.4317 15.5858L15.0225 13.9951C15.1285 13.8926 15.2706 13.8359 15.4181 13.8372C15.5656 13.8385 15.7067 13.8976 15.811 14.0019C15.9153 14.1062 15.9744 14.2473 15.9757 14.3948C15.977 14.5423 15.9203 14.6843 15.8178 14.7904L14.2271 16.3812C14.175 16.4334 14.113 16.4747 14.0449 16.5029C13.9767 16.5311 13.9037 16.5455 13.83 16.5454Z" fill="#17C3CE"/>
</svg>
