<svg width="40" height="40" viewBox="0 0 40 40" fill="none" xmlns="http://www.w3.org/2000/svg">
<circle cx="20" cy="20" r="20" fill="#FFE8E6"/>
<path d="M28.7957 24.6102C28.2753 23.691 27.5018 21.0899 27.5018 17.6926C27.5018 15.6524 26.7115 13.6958 25.3047 12.2531C23.8979 10.8105 21.9899 10 20.0005 10C18.011 10 16.103 10.8105 14.6963 12.2531C13.2895 13.6958 12.4992 15.6524 12.4992 17.6926C12.4992 21.0909 11.7247 23.691 11.2043 24.6102C11.0714 24.844 11.0009 25.1095 11 25.38C10.9991 25.6505 11.0678 25.9165 11.1991 26.1512C11.3304 26.3858 11.5198 26.5808 11.748 26.7164C11.9763 26.8521 12.2354 26.9236 12.4992 26.9238H16.3258C16.4988 27.7923 16.9591 28.5728 17.6287 29.1333C18.2983 29.6938 19.1361 30 20.0005 30C20.8648 30 21.7027 29.6938 22.3723 29.1333C23.0418 28.5728 23.5021 27.7923 23.6752 26.9238H27.5018C27.7655 26.9234 28.0245 26.8518 28.2526 26.7161C28.4807 26.5804 28.6699 26.3854 28.8011 26.1508C28.9323 25.9161 29.0009 25.6502 29 25.3798C28.999 25.1093 28.9286 24.8439 28.7957 24.6102ZM20.0005 28.4623C19.5352 28.4622 19.0815 28.3142 18.7016 28.0386C18.3218 27.7631 18.0346 27.3736 17.8795 26.9238H22.1215C21.9664 27.3736 21.6792 27.7631 21.2993 28.0386C20.9195 28.3142 20.4657 28.4622 20.0005 28.4623ZM12.4992 25.3853C13.2212 24.1121 13.9994 21.162 13.9994 17.6926C13.9994 16.0605 14.6317 14.4951 15.7571 13.341C16.8825 12.1869 18.4089 11.5385 20.0005 11.5385C21.592 11.5385 23.1184 12.1869 24.2438 13.341C25.3693 14.4951 26.0015 16.0605 26.0015 17.6926C26.0015 21.1591 26.7779 24.1093 27.5018 25.3853H12.4992Z" fill="#EB5757"/>
</svg>
