<svg width="146" height="160" viewBox="0 0 146 160" fill="none" xmlns="http://www.w3.org/2000/svg">
<g clip-path="url(#clip0_268_646)">
<path d="M122.379 4.11914H12.8989C5.77502 4.11914 0 9.89624 0 17.0226V125.148C0 132.274 5.77502 138.051 12.8989 138.051H122.379C129.503 138.051 135.278 132.274 135.278 125.148V17.0226C135.278 9.89624 129.503 4.11914 122.379 4.11914Z" fill="#F2F2F2"/>
<path d="M12.8986 6.77283C11.553 6.77283 10.2206 7.03794 8.97749 7.55304C7.73437 8.06815 6.60483 8.82316 5.65339 9.77495C4.70194 10.7267 3.9472 11.8567 3.43228 13.1002C2.91736 14.3438 2.65234 15.6767 2.65234 17.0227V125.148C2.65234 127.866 3.73185 130.473 5.65339 132.396C7.57492 134.318 10.1811 135.398 12.8986 135.398H82.7716C89.3185 135.398 95.8012 134.108 101.85 131.602C107.898 129.095 113.394 125.422 118.023 120.791C122.653 116.16 126.325 110.662 128.83 104.611C131.336 98.5607 132.625 92.0756 132.625 85.5264V17.0227C132.625 15.6767 132.36 14.3438 131.845 13.1002C131.33 11.8567 130.575 10.7267 129.624 9.77495C128.673 8.82316 127.543 8.06815 126.3 7.55304C125.057 7.03794 123.724 6.77283 122.379 6.77283H12.8986Z" fill="white"/>
<path d="M98.244 39.5869H36.795C36.2311 39.5869 35.6903 39.3629 35.2916 38.964C34.8929 38.5652 34.6689 38.0242 34.6689 37.4602C34.6689 36.8961 34.8929 36.3551 35.2916 35.9563C35.6903 35.5574 36.2311 35.3334 36.795 35.3334H98.244C98.8079 35.3334 99.3486 35.5574 99.7474 35.9563C100.146 36.3551 100.37 36.8961 100.37 37.4602C100.37 38.0242 100.146 38.5652 99.7474 38.964C99.3486 39.3629 98.8079 39.5869 98.244 39.5869Z" fill="#F2F2F2"/>
<path d="M98.244 84.9401H36.795C36.2311 84.9401 35.6903 84.716 35.2916 84.3172C34.8929 83.9183 34.6689 83.3774 34.6689 82.8133C34.6689 82.2493 34.8929 81.7083 35.2916 81.3094C35.6903 80.9106 36.2311 80.6865 36.795 80.6865H98.244C98.8079 80.6865 99.3486 80.9106 99.7474 81.3094C100.146 81.7083 100.37 82.2493 100.37 82.8133C100.37 83.3774 100.146 83.9183 99.7474 84.3172C99.3486 84.716 98.8079 84.9401 98.244 84.9401Z" fill="#F2F2F2"/>
<path d="M123.197 62.2784H11.8418C11.278 62.2784 10.7372 62.0543 10.3385 61.6554C9.93981 61.2566 9.71582 60.7156 9.71582 60.1516C9.71582 59.5875 9.93981 59.0465 10.3385 58.6477C10.7372 58.2488 11.278 58.0248 11.8418 58.0248H123.197C123.761 58.0248 124.302 58.2488 124.701 58.6477C125.099 59.0465 125.323 59.5875 125.323 60.1516C125.323 60.7156 125.099 61.2566 124.701 61.6554C124.302 62.0543 123.761 62.2784 123.197 62.2784Z" fill="#F2F2F2"/>
<path d="M137.769 106.93H46.6125C44.6298 106.93 42.7283 107.718 41.3263 109.121C39.9243 110.523 39.1367 112.425 39.1367 114.409C39.1367 116.392 39.9243 118.294 41.3263 119.697C42.7283 121.099 44.6298 121.887 46.6125 121.887H137.769C139.751 121.887 141.653 121.099 143.055 119.697C144.457 118.294 145.244 116.392 145.244 114.409C145.244 112.425 144.457 110.523 143.055 109.121C141.653 107.718 139.751 106.93 137.769 106.93Z" fill="white"/>
<path d="M137.769 122.37H46.6133C44.5027 122.37 42.4786 121.531 40.9861 120.038C39.4937 118.545 38.6553 116.52 38.6553 114.409C38.6553 112.298 39.4937 110.273 40.9861 108.78C42.4786 107.287 44.5027 106.448 46.6133 106.448H137.769C139.88 106.448 141.904 107.287 143.397 108.78C144.889 110.273 145.728 112.298 145.728 114.409C145.728 116.52 144.889 118.545 143.397 120.038C141.904 121.531 139.88 122.37 137.769 122.37ZM46.6133 107.413C44.7586 107.413 42.9798 108.15 41.6682 109.462C40.3567 110.774 39.6199 112.553 39.6199 114.409C39.6199 116.264 40.3567 118.044 41.6682 119.356C42.9798 120.668 44.7586 121.405 46.6133 121.405H137.769C139.624 121.405 141.403 120.668 142.715 119.356C144.026 118.044 144.763 116.264 144.763 114.409C144.763 112.553 144.026 110.774 142.715 109.462C141.403 108.15 139.624 107.413 137.769 107.413H46.6133Z" fill="#89CCD5"/>
<path d="M143.9 150.432H103.673C103.109 150.432 102.568 150.208 102.17 149.809C101.771 149.41 101.547 148.869 101.547 148.305C101.547 147.741 101.771 147.2 102.17 146.801C102.568 146.402 103.109 146.178 103.673 146.178H143.9C144.464 146.178 145.005 146.402 145.404 146.801C145.802 147.2 146.026 147.741 146.026 148.305C146.026 148.869 145.802 149.41 145.404 149.809C145.005 150.208 144.464 150.432 143.9 150.432Z" fill="#89CCD5"/>
</g>
<defs>
<clipPath id="clip0_268_646">
<rect width="146" height="160" fill="white"/>
</clipPath>
</defs>
</svg>
