<svg width="20" height="20" viewBox="0 0 20 20" fill="none" xmlns="http://www.w3.org/2000/svg">
<g clip-path="url(#clip0_42_4637)">
<path d="M17.6 7.99995C17.6 7.55835 17.2416 7.19995 16.8 7.19995C16.3584 7.19995 16 7.55835 16 7.99995C16 8.19035 16 13.8096 16 14C16 14.4416 16.3584 14.8 16.8 14.8C17.2416 14.8 17.6 14.4416 17.6 14C17.6 13.8096 17.6 8.19035 17.6 7.99995Z" stroke="#17C3CE" stroke-miterlimit="10"/>
<path d="M11.2004 18.8C11.642 18.8 12.0004 18.4416 12.0004 18C12.0004 17.5584 11.642 17.2 11.2004 17.2C11.01 17.2 9.39079 17.2 9.20039 17.2C8.75879 17.2 8.40039 17.5584 8.40039 18C8.40039 18.4416 8.75879 18.8 9.20039 18.8C9.39079 18.8 11.01 18.8 11.2004 18.8Z" stroke="#17C3CE" stroke-miterlimit="10"/>
<path d="M3.2002 7.60005C3.2002 3.84445 6.2446 0.800049 10.0002 0.800049C13.7558 0.800049 16.8002 3.84445 16.8002 7.60005" stroke="#17C3CE" stroke-miterlimit="10"/>
<path d="M17.5996 8C18.7044 8 19.5996 9.3428 19.5996 11C19.5996 12.6564 18.7044 14 17.5996 14" stroke="#17C3CE" stroke-miterlimit="10"/>
<path d="M2.40039 7.99995C2.40039 7.55835 2.75879 7.19995 3.20039 7.19995C3.64199 7.19995 4.00039 7.55835 4.00039 7.99995C4.00039 8.19035 4.00039 13.8096 4.00039 14C4.00039 14.4416 3.64199 14.8 3.20039 14.8C2.75879 14.8 2.40039 14.4416 2.40039 14C2.40039 13.8096 2.40039 8.19035 2.40039 7.99995Z" stroke="#17C3CE" stroke-miterlimit="10"/>
<path d="M2.40039 8C1.29599 8 0.400391 9.3428 0.400391 11C0.400391 12.6564 1.29599 14 2.40039 14" stroke="#17C3CE" stroke-miterlimit="10"/>
<path d="M16.8 14.8C16.8 16.8 15.6 18 13.6 18H12" stroke="#17C3CE" stroke-miterlimit="10"/>
</g>
<defs>
<clipPath id="clip0_42_4637">
<rect width="20" height="20" fill="white"/>
</clipPath>
</defs>
</svg>
