<svg width="12" height="12" viewBox="0 0 12 12" fill="none" xmlns="http://www.w3.org/2000/svg">
<path d="M11.2102 9.95719L8.58516 4.70719C8.55401 4.64491 8.50613 4.59253 8.4469 4.55593C8.38766 4.51932 8.3194 4.49993 8.24977 4.49993C8.18013 4.49993 8.11187 4.51932 8.05264 4.55593C7.9934 4.59253 7.94552 4.64491 7.91438 4.70719L6.89672 6.74297C6.09905 6.69811 5.33156 6.42258 4.6875 5.94984C5.44317 5.14287 5.90102 4.10232 5.98547 3H7.125C7.22446 3 7.31984 2.96049 7.39017 2.89017C7.46049 2.81984 7.5 2.72446 7.5 2.625C7.5 2.52554 7.46049 2.43016 7.39017 2.35984C7.31984 2.28951 7.22446 2.25 7.125 2.25H4.5V1.5C4.5 1.40054 4.46049 1.30516 4.39017 1.23483C4.31984 1.16451 4.22446 1.125 4.125 1.125C4.02554 1.125 3.93016 1.16451 3.85984 1.23483C3.78951 1.30516 3.75 1.40054 3.75 1.5V2.25H1.125C1.02554 2.25 0.930161 2.28951 0.859835 2.35984C0.789509 2.43016 0.75 2.52554 0.75 2.625C0.75 2.72446 0.789509 2.81984 0.859835 2.89017C0.930161 2.96049 1.02554 3 1.125 3H5.23266C5.14913 3.91906 4.75901 4.78333 4.125 5.45391C3.72992 5.03703 3.42653 4.54203 3.23438 4.00078C3.21858 3.95356 3.19353 3.90995 3.16069 3.87252C3.12786 3.83508 3.0879 3.80455 3.04314 3.78272C2.99839 3.76089 2.94973 3.74819 2.90002 3.74537C2.8503 3.74255 2.80052 3.74965 2.75358 3.76628C2.70664 3.7829 2.66348 3.8087 2.62662 3.84218C2.58976 3.87567 2.55993 3.91615 2.53889 3.96128C2.51784 4.00641 2.506 4.05529 2.50404 4.10504C2.50209 4.1548 2.51006 4.20445 2.5275 4.25109C2.75122 4.88384 3.10363 5.46337 3.5625 5.95313C2.85598 6.47231 2.00176 6.75157 1.125 6.75C1.02554 6.75 0.930161 6.78951 0.859835 6.85984C0.789509 6.93016 0.75 7.02554 0.75 7.125C0.75 7.22446 0.789509 7.31984 0.859835 7.39017C0.930161 7.46049 1.02554 7.5 1.125 7.5C2.21278 7.50121 3.26937 7.13668 4.125 6.465C4.82324 7.01056 5.65676 7.35587 6.53625 7.46391L5.28938 9.95719C5.24487 10.0461 5.23752 10.1491 5.26895 10.2435C5.30037 10.3379 5.368 10.4159 5.45695 10.4604C5.5459 10.5049 5.64889 10.5122 5.74326 10.4808C5.83763 10.4494 5.91565 10.3818 5.96016 10.2928L6.60656 9H9.89297L10.5394 10.2928C10.5706 10.3551 10.6185 10.4075 10.6777 10.4441C10.737 10.4807 10.8053 10.5001 10.875 10.5C10.9389 10.5 11.0018 10.4836 11.0576 10.4524C11.1134 10.4213 11.1603 10.3764 11.1939 10.322C11.2275 10.2676 11.2466 10.2056 11.2494 10.1417C11.2523 10.0779 11.2388 10.0143 11.2102 9.95719ZM6.98156 8.25L8.25 5.71359L9.51797 8.25H6.98156Z" fill="#17C3CE"/>
</svg>
