<svg width="32" height="32" viewBox="0 0 32 32" fill="none" xmlns="http://www.w3.org/2000/svg">
<circle cx="16" cy="16" r="16" fill="#7DD8DE" fill-opacity="0.16"/>
<path d="M21.7147 14.7013C21.7147 19.2468 16.0004 23.1429 16.0004 23.1429C16.0004 23.1429 10.2861 19.2468 10.2861 14.7013C10.2861 13.1513 10.8882 11.6649 11.9598 10.5689C13.0314 9.47287 14.4849 8.85715 16.0004 8.85715C17.5159 8.85715 18.9694 9.47287 20.041 10.5689C21.1127 11.6649 21.7147 13.1513 21.7147 14.7013Z" stroke="#17C3CE" stroke-width="1.25" stroke-linecap="round" stroke-linejoin="round"/>
<path d="M15.9999 16C16.7888 16 17.4284 15.3604 17.4284 14.5714C17.4284 13.7824 16.7888 13.1429 15.9999 13.1429C15.2109 13.1429 14.5713 13.7824 14.5713 14.5714C14.5713 15.3604 15.2109 16 15.9999 16Z" stroke="#17C3CE" stroke-width="1.25" stroke-linecap="round" stroke-linejoin="round"/>
</svg>
