<svg width="133" height="133" viewBox="0 0 133 133" fill="none" xmlns="http://www.w3.org/2000/svg">
<path d="M66.5 3.5C59.0739 3.5 51.952 6.34463 46.701 11.4081C41.45 16.4716 38.5 23.3392 38.5 30.5V35H47.8333V30.5C47.8333 25.7261 49.8 21.1477 53.3007 17.7721C56.8014 14.3964 61.5493 12.5 66.5 12.5C71.4507 12.5 76.1986 14.3964 79.6993 17.7721C83.2 21.1477 85.1667 25.7261 85.1667 30.5V35H94.5V30.5C94.5 23.3392 91.55 16.4716 86.299 11.4081C81.048 6.34463 73.9261 3.5 66.5 3.5Z" fill="#17C3CE"/>
<path d="M99.75 49.8748H33.25C28.8408 49.8748 24.6121 51.6263 21.4943 54.7441C18.3766 57.8619 16.625 62.0905 16.625 66.4998V110.833C16.625 115.242 18.3766 119.471 21.4943 122.589C24.6121 125.707 28.8408 127.458 33.25 127.458H99.75C104.159 127.458 108.388 125.707 111.506 122.589C114.623 119.471 116.375 115.242 116.375 110.833V66.4998C116.375 62.0905 114.623 57.8619 111.506 54.7441C108.388 51.6263 104.159 49.8748 99.75 49.8748ZM72.0417 92.7118V105.291C72.0417 106.761 71.4578 108.171 70.4185 109.21C69.3793 110.249 67.9697 110.833 66.5 110.833C65.0303 110.833 63.6207 110.249 62.5815 109.21C61.5422 108.171 60.9583 106.761 60.9583 105.291V92.7118C58.8454 91.4919 57.194 89.6089 56.2603 87.3548C55.3267 85.1007 55.1628 82.6015 55.7943 80.2448C56.4258 77.8881 57.8173 75.8057 59.7529 74.3204C61.6885 72.8351 64.0602 72.0301 66.5 72.0301C68.9398 72.0301 71.3115 72.8351 73.2471 74.3204C75.1827 75.8057 76.5742 77.8881 77.2057 80.2448C77.8371 82.6015 77.6733 85.1007 76.7397 87.3548C75.806 89.6089 74.1546 91.4919 72.0417 92.7118Z" fill="#17C3CE"/>
</svg>
