<svg width="40" height="40" viewBox="0 0 40 40" fill="none" xmlns="http://www.w3.org/2000/svg">
<circle cx="20" cy="20" r="20" fill="#DCF3F9"/>
<g clip-path="url(#clip0_40_3339)">
<path d="M20.9996 10.5942C19.8829 10.5942 18.8119 11.022 18.0223 11.7834C17.2327 12.5449 16.7891 13.5776 16.7891 14.6544V15.3311H18.1926V14.6544C18.1926 13.9365 18.4883 13.248 19.0147 12.7404C19.5411 12.2328 20.2551 11.9476 20.9996 11.9476C21.7441 11.9476 22.458 12.2328 22.9845 12.7404C23.5109 13.248 23.8066 13.9365 23.8066 14.6544V15.3311H25.2101V14.6544C25.2101 13.5776 24.7665 12.5449 23.9769 11.7834C23.1873 11.022 22.1163 10.5942 20.9996 10.5942Z" fill="#17C3CE"/>
<path d="M26 17.5679H16C15.337 17.5679 14.7011 17.8313 14.2322 18.3001C13.7634 18.7689 13.5 19.4048 13.5 20.0679V26.7345C13.5 27.3976 13.7634 28.0335 14.2322 28.5023C14.7011 28.9711 15.337 29.2345 16 29.2345H26C26.663 29.2345 27.2989 28.9711 27.7678 28.5023C28.2366 28.0335 28.5 27.3976 28.5 26.7345V20.0679C28.5 19.4048 28.2366 18.7689 27.7678 18.3001C27.2989 17.8313 26.663 17.5679 26 17.5679ZM21.8333 24.0095V25.9012C21.8333 26.1222 21.7455 26.3342 21.5893 26.4905C21.433 26.6467 21.221 26.7345 21 26.7345C20.779 26.7345 20.567 26.6467 20.4107 26.4905C20.2545 26.3342 20.1667 26.1222 20.1667 25.9012V24.0095C19.8489 23.8261 19.6006 23.5429 19.4602 23.204C19.3198 22.865 19.2952 22.4892 19.3901 22.1348C19.4851 21.7804 19.6943 21.4673 19.9854 21.2439C20.2765 21.0206 20.6331 20.8995 21 20.8995C21.3669 20.8995 21.7235 21.0206 22.0146 21.2439C22.3057 21.4673 22.5149 21.7804 22.6099 22.1348C22.7048 22.4892 22.6802 22.865 22.5398 23.204C22.3994 23.5429 22.1511 23.8261 21.8333 24.0095Z" fill="#17C3CE"/>
</g>
<defs>
<clipPath id="clip0_40_3339">
<rect width="20" height="20" fill="white" transform="translate(11 10.0679)"/>
</clipPath>
</defs>
</svg>
