<svg width="20" height="20" viewBox="0 0 20 20" fill="none" xmlns="http://www.w3.org/2000/svg">
<g clip-path="url(#clip0_42_4622)">
<path d="M18.75 11.875H11.25V13.125H18.75V11.875Z" fill="#17C3CE"/>
<path d="M18.75 14.375H11.25V15.625H18.75V14.375Z" fill="#17C3CE"/>
<path d="M16.25 16.875H11.25V18.125H16.25V16.875Z" fill="#17C3CE"/>
<path d="M14.9997 2.5C14.4469 2.50168 13.9104 2.68666 13.474 3.02596C13.0377 3.36526 12.7263 3.83972 12.5885 4.375H7.49966V2.5H2.49966V7.5H7.49966V5.625H12.5885C12.6466 5.8487 12.736 6.0631 12.854 6.26188L6.26153 12.8543C5.88049 12.6247 5.44451 12.5023 4.99966 12.5C4.53168 12.4982 4.0726 12.6279 3.67465 12.8741C3.27671 13.1204 2.95588 13.4734 2.74866 13.893C2.54145 14.3126 2.45617 14.782 2.50254 15.2477C2.5489 15.7133 2.72504 16.1567 3.01093 16.5272C3.29681 16.8977 3.68095 17.1805 4.11964 17.3435C4.55833 17.5065 5.03395 17.543 5.4924 17.449C5.95084 17.355 6.3737 17.1342 6.71286 16.8118C7.05201 16.4893 7.29385 16.0781 7.41085 15.625H9.99966V14.375H7.41085C7.35267 14.1513 7.2633 13.9369 7.14535 13.7381L13.7378 7.14569C14.1188 7.37527 14.5548 7.49768 14.9997 7.5C15.6627 7.5 16.2986 7.23661 16.7674 6.76777C17.2363 6.29893 17.4997 5.66304 17.4997 5C17.4997 4.33696 17.2363 3.70107 16.7674 3.23223C16.2986 2.76339 15.6627 2.5 14.9997 2.5ZM6.24966 6.25H3.74966V3.75H6.24966V6.25ZM4.99966 16.25C4.75243 16.25 4.51076 16.1767 4.3052 16.0393C4.09963 15.902 3.93942 15.7068 3.84481 15.4784C3.7502 15.2499 3.72544 14.9986 3.77368 14.7561C3.82191 14.5137 3.94096 14.2909 4.11577 14.1161C4.29059 13.9413 4.51332 13.8222 4.7558 13.774C4.99827 13.7258 5.2496 13.7505 5.47801 13.8451C5.70642 13.9398 5.90164 14.1 6.039 14.3055C6.17635 14.5111 6.24966 14.7528 6.24966 15C6.24928 15.3314 6.11746 15.6491 5.88312 15.8835C5.64878 16.1178 5.33106 16.2496 4.99966 16.25ZM14.9997 6.25C14.7524 6.25 14.5108 6.17669 14.3052 6.03934C14.0996 5.90199 13.9394 5.70676 13.8448 5.47835C13.7502 5.24995 13.7254 4.99861 13.7737 4.75614C13.8219 4.51366 13.941 4.29093 14.1158 4.11612C14.2906 3.9413 14.5133 3.82225 14.7558 3.77402C14.9983 3.72579 15.2496 3.75054 15.478 3.84515C15.7064 3.93976 15.9016 4.09998 16.039 4.30554C16.1763 4.5111 16.2497 4.75277 16.2497 5C16.2493 5.3314 16.1175 5.64913 15.8831 5.88346C15.6488 6.1178 15.3311 6.24962 14.9997 6.25Z" fill="#17C3CE"/>
</g>
<defs>
<clipPath id="clip0_42_4622">
<rect width="20" height="20" fill="white"/>
</clipPath>
</defs>
</svg>
