<svg width="36" height="36" viewBox="0 0 36 36" fill="none" xmlns="http://www.w3.org/2000/svg">
<rect width="36" height="36" rx="18" fill="white"/>
<g clip-path="url(#clip0_152_601)">
<path d="M27.625 20.0625H19.375V21.4375H27.625V20.0625Z" fill="#17C3CE"/>
<path d="M27.625 22.8125H19.375V24.1875H27.625V22.8125Z" fill="#17C3CE"/>
<path d="M24.875 25.5625H19.375V26.9375H24.875V25.5625Z" fill="#17C3CE"/>
<path d="M23.4996 9.75C22.8916 9.75185 22.3014 9.95533 21.8214 10.3286C21.3415 10.7018 20.9989 11.2237 20.8473 11.8125H15.2496V9.75H9.74962V15.25H15.2496V13.1875H20.8473C20.9113 13.4336 21.0096 13.6694 21.1394 13.8881L13.8877 21.1397C13.4685 20.8872 12.989 20.7525 12.4996 20.75C11.9848 20.7481 11.4799 20.8906 11.0421 21.1615C10.6044 21.4324 10.2515 21.8208 10.0235 22.2823C9.79559 22.7439 9.70179 23.2602 9.75279 23.7724C9.80379 24.2847 9.99755 24.7723 10.312 25.1799C10.6265 25.5875 11.049 25.8986 11.5316 26.0778C12.0142 26.2571 12.5373 26.2973 13.0416 26.1939C13.5459 26.0905 14.0111 25.8477 14.3841 25.4929C14.7572 25.1382 15.0232 24.6859 15.1519 24.1875H17.9996V22.8125H15.1519C15.0879 22.5664 14.9896 22.3306 14.8599 22.1119L22.1116 14.8603C22.5307 15.1128 23.0103 15.2475 23.4996 15.25C24.229 15.25 24.9284 14.9603 25.4442 14.4445C25.9599 13.9288 26.2496 13.2293 26.2496 12.5C26.2496 11.7707 25.9599 11.0712 25.4442 10.5555C24.9284 10.0397 24.229 9.75 23.4996 9.75ZM13.8746 13.875H11.1246V11.125H13.8746V13.875ZM12.4996 24.875C12.2277 24.875 11.9618 24.7944 11.7357 24.6433C11.5096 24.4922 11.3334 24.2774 11.2293 24.0262C11.1252 23.7749 11.098 23.4985 11.151 23.2318C11.2041 22.965 11.3351 22.72 11.5274 22.5277C11.7196 22.3354 11.9647 22.2045 12.2314 22.1514C12.4981 22.0984 12.7746 22.1256 13.0258 22.2297C13.2771 22.3337 13.4918 22.51 13.6429 22.7361C13.794 22.9622 13.8746 23.2281 13.8746 23.5C13.8742 23.8645 13.7292 24.214 13.4714 24.4718C13.2137 24.7296 12.8642 24.8746 12.4996 24.875ZM23.4996 13.875C23.2277 13.875 22.9618 13.7944 22.7357 13.6433C22.5096 13.4922 22.3334 13.2774 22.2293 13.0262C22.1252 12.7749 22.098 12.4985 22.151 12.2318C22.2041 11.965 22.3351 11.72 22.5274 11.5277C22.7196 11.3354 22.9647 11.2045 23.2314 11.1514C23.4981 11.0984 23.7746 11.1256 24.0258 11.2297C24.2771 11.3337 24.4918 11.51 24.6429 11.7361C24.794 11.9622 24.8746 12.2281 24.8746 12.5C24.8742 12.8645 24.7292 13.214 24.4714 13.4718C24.2137 13.7296 23.8642 13.8746 23.4996 13.875Z" fill="#17C3CE"/>
</g>
<defs>
<clipPath id="clip0_152_601">
<rect width="22" height="22" fill="white" transform="translate(7 7)"/>
</clipPath>
</defs>
</svg>
