<svg width="20" height="20" viewBox="0 0 20 20" fill="none" xmlns="http://www.w3.org/2000/svg">
<path fill-rule="evenodd" clip-rule="evenodd" d="M10 18.75C5.1675 18.75 1.25 14.8325 1.25 10C1.25 5.1675 5.1675 1.25 10 1.25C14.8325 1.25 18.75 5.1675 18.75 10C18.75 14.8325 14.8325 18.75 10 18.75ZM14.8471 16.25C14.7817 16.1537 14.6992 16.0342 14.6329 15.9408C14.5175 15.7767 14.4021 15.6125 14.2987 15.45C14.2937 15.4425 13.7229 14.6767 11.6667 14.5833C10.9513 14.5833 10.4312 14.0467 10.43 13.3058L10.4167 12.9167C10.41 12.9783 10.4167 12.8604 10.4167 12.9167V12.5L10.8333 12.0833C11.1379 11.9421 11.525 11.7046 11.8313 11.4733L11.8875 11.4346C12.1296 11.2808 12.4679 10.9571 12.5 10.8333L12.515 10.6746C12.6704 9.87333 12.9167 8.41583 12.9167 7.91667C12.9167 5.95417 11.9625 5 10 5C8.01042 5 7.08333 5.92667 7.08333 7.91667C7.08333 8.42917 7.32958 9.87958 7.48458 10.6733L7.49917 10.82C7.52542 10.9504 7.83208 11.2592 8.10292 11.4292L8.14375 11.455C8.47208 11.6846 8.86458 11.9404 9.16667 12.0833L9.58333 12.5V12.9167C9.58333 12.8558 9.58917 12.9742 9.58333 12.9167L9.56958 13.3058C9.56958 14.0454 9.05042 14.5825 8.36833 14.5825C8.36792 14.5825 8.3675 14.5825 8.36708 14.5825C6.30208 14.6663 5.70333 15.4479 5.7025 15.4479C5.5975 15.6129 5.4825 15.7767 5.36625 15.9412C5.30083 16.0346 5.21833 16.1537 5.1525 16.25C6.49292 17.2908 8.17125 17.9167 9.99958 17.9167C11.8279 17.9167 13.5067 17.2908 14.8471 16.25ZM10 2.08333C5.62792 2.08333 2.08333 5.62792 2.08333 10C2.08333 12.2442 3.02083 14.2654 4.52083 15.7058C4.68 15.4704 4.85 15.2354 5 15C5 15 5.69583 13.8571 8.33333 13.75C8.60208 13.75 8.73625 13.5742 8.73625 13.3058H8.73667C8.73625 13.0887 8.73625 12.9167 8.73625 12.9167C8.73625 12.8625 8.7275 12.8138 8.725 12.7613C8.42333 12.6187 8.07333 12.4221 7.66708 12.1387C7.66708 12.1387 6.66708 11.5237 6.66708 10.8333C6.66708 10.8333 6.25042 8.70167 6.25042 7.91667C6.25042 5.98167 7.07792 4.16667 10.0004 4.16667C12.8837 4.16667 13.7504 5.98167 13.7504 7.91667C13.7504 8.6825 13.3337 10.8333 13.3337 10.8333C13.3337 11.5046 12.3337 12.1387 12.3337 12.1387C11.9358 12.4392 11.5833 12.6396 11.2742 12.7829C11.2721 12.8283 11.2646 12.87 11.2646 12.9167C11.2646 12.9167 11.2642 13.0887 11.2642 13.3058C11.2633 13.5742 11.3979 13.75 11.6667 13.75C14.3433 13.87 15 15 15 15C15.15 15.2354 15.3196 15.4704 15.4787 15.7058C16.9787 14.2654 17.9167 12.2442 17.9167 10C17.9167 5.62792 14.3721 2.08333 10 2.08333Z" fill="#17C3CE"/>
</svg>
