<svg width="65" height="52" viewBox="0 0 65 52" fill="none" xmlns="http://www.w3.org/2000/svg">
<path d="M31.9375 4.5H26.3125C26.1633 4.5 26.0202 4.44074 25.9148 4.33525C25.8093 4.22976 25.75 4.08668 25.75 3.9375C25.75 3.78832 25.8093 3.64524 25.9148 3.53975C26.0202 3.43426 26.1633 3.375 26.3125 3.375H31.9375C32.0867 3.375 32.2298 3.43426 32.3352 3.53975C32.4407 3.64524 32.5 3.78832 32.5 3.9375C32.5 4.08668 32.4407 4.22976 32.3352 4.33525C32.2298 4.44074 32.0867 4.5 31.9375 4.5ZM29.6875 32.625H28.5625C28.4133 32.625 28.2702 32.5657 28.1648 32.4602C28.0593 32.3548 28 32.2117 28 32.0625C28 31.9133 28.0593 31.7702 28.1648 31.6648C28.2702 31.5593 28.4133 31.5 28.5625 31.5H29.6875C29.8367 31.5 29.9798 31.5593 30.0852 31.6648C30.1907 31.7702 30.25 31.9133 30.25 32.0625C30.25 32.2117 30.1907 32.3548 30.0852 32.4602C29.9798 32.5657 29.8367 32.625 29.6875 32.625Z" fill="#17C3CE"/>
<path d="M35.3125 34.875H22.9375C22.1918 34.8744 21.4767 34.5779 20.9494 34.0506C20.4221 33.5233 20.1256 32.8082 20.125 32.0625V3.9375C20.125 2.38613 21.3861 1.125 22.9375 1.125H35.3125C36.8639 1.125 38.125 2.38613 38.125 3.9375V9.5625C38.125 9.71168 38.0657 9.85476 37.9602 9.96025C37.8548 10.0657 37.7117 10.125 37.5625 10.125C37.4133 10.125 37.2702 10.0657 37.1648 9.96025C37.0593 9.85476 37 9.71168 37 9.5625V3.9375C37 3.00713 36.2429 2.25 35.3125 2.25H22.9375C22.0071 2.25 21.25 3.00713 21.25 3.9375V32.0625C21.25 32.9929 22.0071 33.75 22.9375 33.75H35.3125C36.2429 33.75 37 32.9929 37 32.0625V20.8125C37 20.6633 37.0593 20.5202 37.1648 20.4148C37.2702 20.3093 37.4133 20.25 37.5625 20.25C37.7117 20.25 37.8548 20.3093 37.9602 20.4148C38.0657 20.5202 38.125 20.6633 38.125 20.8125V32.0625C38.125 33.6139 36.8639 34.875 35.3125 34.875Z" fill="#17C3CE"/>
<path d="M46.5625 19.125H25.1875C25.0383 19.125 24.8952 19.0657 24.7898 18.9602C24.6843 18.8548 24.625 18.7117 24.625 18.5625V11.8125C24.625 11.6633 24.6843 11.5202 24.7898 11.4148C24.8952 11.3093 25.0383 11.25 25.1875 11.25H46.5625C46.7117 11.25 46.8548 11.3093 46.9602 11.4148C47.0657 11.5202 47.125 11.6633 47.125 11.8125V18.5625C47.125 18.7117 47.0657 18.8548 46.9602 18.9602C46.8548 19.0657 46.7117 19.125 46.5625 19.125ZM25.75 18H46V12.375H25.75V18Z" fill="#17C3CE"/>
<path d="M43.9827 15.9829C43.9827 16.0941 43.9497 16.2028 43.888 16.2952C43.8262 16.3877 43.7385 16.4597 43.6358 16.5024C43.5331 16.545 43.4201 16.5562 43.3111 16.5346C43.202 16.5131 43.1018 16.4597 43.0231 16.3812L41.4323 14.7904C41.3299 14.6843 41.2732 14.5423 41.2744 14.3948C41.2757 14.2473 41.3349 14.1062 41.4392 14.0019C41.5435 13.8976 41.6845 13.8385 41.832 13.8372C41.9795 13.8359 42.1216 13.8926 42.2277 13.9951L43.8184 15.5858C43.8706 15.6379 43.912 15.6998 43.9402 15.768C43.9683 15.8361 43.9828 15.9092 43.9827 15.9829Z" fill="#17C3CE"/>
<path d="M41.8294 16.5454C41.7183 16.5454 41.6096 16.5124 41.5172 16.4507C41.4247 16.389 41.3526 16.3012 41.31 16.1985C41.2674 16.0959 41.2562 15.9829 41.2777 15.8738C41.2993 15.7648 41.3527 15.6645 41.4312 15.5858L43.0219 13.9951C43.128 13.8926 43.2701 13.8359 43.4176 13.8372C43.5651 13.8385 43.7062 13.8976 43.8105 14.0019C43.9148 14.1062 43.9739 14.2473 43.9752 14.3948C43.9765 14.5423 43.9198 14.6843 43.8173 14.7904L42.2266 16.3812C42.1744 16.4334 42.1125 16.4747 42.0444 16.5029C41.9762 16.5311 41.9032 16.5455 41.8294 16.5454ZM39.4827 15.9829C39.4827 16.0941 39.4497 16.2028 39.388 16.2952C39.3262 16.3877 39.2385 16.4597 39.1358 16.5024C39.0331 16.545 38.9201 16.5562 38.8111 16.5346C38.702 16.5131 38.6018 16.4597 38.5231 16.3812L36.9323 14.7904C36.8299 14.6843 36.7732 14.5423 36.7744 14.3948C36.7757 14.2473 36.8349 14.1062 36.9392 14.0019C37.0435 13.8976 37.1845 13.8385 37.332 13.8372C37.4795 13.8359 37.6216 13.8926 37.7277 13.9951L39.3184 15.5858C39.3706 15.6379 39.412 15.6998 39.4402 15.768C39.4683 15.8361 39.4828 15.9092 39.4827 15.9829Z" fill="#17C3CE"/>
<path d="M37.3294 16.5454C37.2183 16.5454 37.1096 16.5124 37.0172 16.4507C36.9247 16.389 36.8526 16.3012 36.81 16.1985C36.7674 16.0959 36.7562 15.9829 36.7777 15.8738C36.7993 15.7648 36.8527 15.6645 36.9312 15.5858L38.5219 13.9951C38.628 13.8926 38.7701 13.8359 38.9176 13.8372C39.0651 13.8385 39.2062 13.8976 39.3105 14.0019C39.4148 14.1062 39.4739 14.2473 39.4752 14.3948C39.4765 14.5423 39.4198 14.6843 39.3173 14.7904L37.7266 16.3812C37.6744 16.4334 37.6125 16.4747 37.5444 16.5029C37.4762 16.5311 37.4032 16.5455 37.3294 16.5454ZM34.9827 15.9829C34.9827 16.0941 34.9497 16.2028 34.888 16.2952C34.8262 16.3877 34.7385 16.4597 34.6358 16.5024C34.5331 16.545 34.4201 16.5562 34.3111 16.5346C34.202 16.5131 34.1018 16.4597 34.0231 16.3812L32.4323 14.7904C32.3299 14.6843 32.2732 14.5423 32.2744 14.3948C32.2757 14.2473 32.3349 14.1062 32.4392 14.0019C32.5435 13.8976 32.6845 13.8385 32.832 13.8372C32.9795 13.8359 33.1216 13.8926 33.2277 13.9951L34.8184 15.5858C34.8706 15.6379 34.912 15.6998 34.9402 15.768C34.9683 15.8361 34.9828 15.9092 34.9827 15.9829Z" fill="#17C3CE"/>
<path d="M32.8294 16.5454C32.7183 16.5454 32.6096 16.5124 32.5172 16.4507C32.4247 16.389 32.3526 16.3012 32.31 16.1985C32.2674 16.0959 32.2562 15.9829 32.2777 15.8738C32.2993 15.7648 32.3527 15.6645 32.4312 15.5858L34.0219 13.9951C34.128 13.8926 34.2701 13.8359 34.4176 13.8372C34.5651 13.8385 34.7062 13.8976 34.8105 14.0019C34.9148 14.1062 34.9739 14.2473 34.9752 14.3948C34.9765 14.5423 34.9198 14.6843 34.8173 14.7904L33.2266 16.3812C33.1744 16.4334 33.1125 16.4747 33.0444 16.5029C32.9762 16.5311 32.9032 16.5455 32.8294 16.5454ZM30.4827 15.9829C30.4827 16.0941 30.4497 16.2028 30.388 16.2952C30.3262 16.3877 30.2385 16.4597 30.1358 16.5024C30.0331 16.545 29.9201 16.5562 29.8111 16.5346C29.702 16.5131 29.6018 16.4597 29.5231 16.3812L27.9323 14.7904C27.8299 14.6843 27.7732 14.5423 27.7744 14.3948C27.7757 14.2473 27.8349 14.1062 27.9392 14.0019C28.0435 13.8976 28.1845 13.8385 28.332 13.8372C28.4795 13.8359 28.6216 13.8926 28.7277 13.9951L30.3184 15.5858C30.3706 15.6379 30.412 15.6998 30.4402 15.768C30.4683 15.8361 30.4828 15.9092 30.4827 15.9829Z" fill="#17C3CE"/>
<path d="M28.33 16.5454C28.2188 16.5454 28.1101 16.5124 28.0177 16.4507C27.9252 16.389 27.8532 16.3012 27.8105 16.1985C27.7679 16.0959 27.7567 15.9829 27.7783 15.8738C27.7998 15.7648 27.8532 15.6645 27.9317 15.5858L29.5225 13.9951C29.6285 13.8926 29.7706 13.8359 29.9181 13.8372C30.0656 13.8385 30.2067 13.8976 30.311 14.0019C30.4153 14.1062 30.4744 14.2473 30.4757 14.3948C30.477 14.5423 30.4203 14.6843 30.3178 14.7904L28.7271 16.3812C28.675 16.4334 28.613 16.4747 28.5449 16.5029C28.4767 16.5311 28.4037 16.5455 28.33 16.5454Z" fill="#17C3CE"/>
<path d="M3.585 49.15C3.07833 49.15 2.62167 49.0617 2.215 48.885C1.80833 48.7083 1.46167 48.4567 1.175 48.13C0.891667 47.8033 0.675 47.41 0.525 46.95C0.375 46.4867 0.3 45.97 0.3 45.4C0.3 44.6467 0.43 43.99 0.69 43.43C0.953333 42.8667 1.33 42.43 1.82 42.12C2.31 41.81 2.89833 41.655 3.585 41.655C4.35167 41.655 4.975 41.835 5.455 42.195C5.93833 42.5517 6.275 43.0317 6.465 43.635L5.725 43.815C5.56833 43.375 5.31 43.0233 4.95 42.76C4.59333 42.4967 4.14833 42.365 3.615 42.365C3.05167 42.3617 2.58333 42.4883 2.21 42.745C1.83667 42.9983 1.555 43.355 1.365 43.815C1.17833 44.2717 1.08333 44.8 1.08 45.4C1.07667 46 1.16833 46.5283 1.355 46.985C1.545 47.4383 1.82833 47.795 2.205 48.055C2.58167 48.3117 3.05167 48.4417 3.615 48.445C4.13167 48.445 4.55833 48.345 4.895 48.145C5.23167 47.945 5.48667 47.6583 5.66 47.285C5.83667 46.9117 5.93667 46.47 5.96 45.96H4.3V45.33H6.73C6.74 45.4067 6.745 45.4883 6.745 45.575C6.74833 45.6583 6.75 45.7183 6.75 45.755C6.75 46.405 6.63333 46.9867 6.4 47.5C6.16667 48.01 5.815 48.4133 5.345 48.71C4.87833 49.0033 4.29167 49.15 3.585 49.15ZM10.0358 49.15C9.50911 49.15 9.05245 49.0333 8.66578 48.8C8.28245 48.5667 7.98411 48.2383 7.77078 47.815C7.55745 47.3917 7.45078 46.895 7.45078 46.325C7.45078 45.735 7.55578 45.225 7.76578 44.795C7.97578 44.365 8.27078 44.0333 8.65078 43.8C9.03411 43.5667 9.48578 43.45 10.0058 43.45C10.5391 43.45 10.9941 43.5733 11.3708 43.82C11.7474 44.0633 12.0324 44.4133 12.2258 44.87C12.4191 45.3267 12.5074 45.8717 12.4908 46.505H11.7408V46.245C11.7274 45.545 11.5758 45.0167 11.2858 44.66C10.9991 44.3033 10.5791 44.125 10.0258 44.125C9.44578 44.125 9.00078 44.3133 8.69078 44.69C8.38411 45.0667 8.23078 45.6033 8.23078 46.3C8.23078 46.98 8.38411 47.5083 8.69078 47.885C9.00078 48.2583 9.43911 48.445 10.0058 48.445C10.3924 48.445 10.7291 48.3567 11.0158 48.18C11.3058 48 11.5341 47.7417 11.7008 47.405L12.3858 47.67C12.1724 48.14 11.8574 48.505 11.4408 48.765C11.0274 49.0217 10.5591 49.15 10.0358 49.15ZM7.97078 46.505V45.89H12.0958V46.505H7.97078ZM17.3539 49V46.245C17.3539 45.945 17.3256 45.67 17.2689 45.42C17.2122 45.1667 17.1206 44.9467 16.9939 44.76C16.8706 44.57 16.7089 44.4233 16.5089 44.32C16.3122 44.2167 16.0722 44.165 15.7889 44.165C15.5289 44.165 15.2989 44.21 15.0989 44.3C14.9022 44.39 14.7356 44.52 14.5989 44.69C14.4656 44.8567 14.3639 45.06 14.2939 45.3C14.2239 45.54 14.1889 45.8133 14.1889 46.12L13.6689 46.005C13.6689 45.4517 13.7656 44.9867 13.9589 44.61C14.1522 44.2333 14.4189 43.9483 14.7589 43.755C15.0989 43.5617 15.4889 43.465 15.9289 43.465C16.2522 43.465 16.5339 43.515 16.7739 43.615C17.0172 43.715 17.2222 43.85 17.3889 44.02C17.5589 44.19 17.6956 44.385 17.7989 44.605C17.9022 44.8217 17.9772 45.0533 18.0239 45.3C18.0706 45.5433 18.0939 45.7867 18.0939 46.03V49H17.3539ZM13.4489 49V43.6H14.1139V44.93H14.1889V49H13.4489ZM21.6471 49.15C21.1204 49.15 20.6638 49.0333 20.2771 48.8C19.8938 48.5667 19.5954 48.2383 19.3821 47.815C19.1688 47.3917 19.0621 46.895 19.0621 46.325C19.0621 45.735 19.1671 45.225 19.3771 44.795C19.5871 44.365 19.8821 44.0333 20.2621 43.8C20.6454 43.5667 21.0971 43.45 21.6171 43.45C22.1504 43.45 22.6054 43.5733 22.9821 43.82C23.3588 44.0633 23.6438 44.4133 23.8371 44.87C24.0304 45.3267 24.1188 45.8717 24.1021 46.505H23.3521V46.245C23.3388 45.545 23.1871 45.0167 22.8971 44.66C22.6104 44.3033 22.1904 44.125 21.6371 44.125C21.0571 44.125 20.6121 44.3133 20.3021 44.69C19.9954 45.0667 19.8421 45.6033 19.8421 46.3C19.8421 46.98 19.9954 47.5083 20.3021 47.885C20.6121 48.2583 21.0504 48.445 21.6171 48.445C22.0038 48.445 22.3404 48.3567 22.6271 48.18C22.9171 48 23.1454 47.7417 23.3121 47.405L23.9971 47.67C23.7838 48.14 23.4688 48.505 23.0521 48.765C22.6388 49.0217 22.1704 49.15 21.6471 49.15ZM19.5821 46.505V45.89H23.7071V46.505H19.5821ZM25.2117 49V43.6H25.8717V44.9L25.7417 44.73C25.8017 44.57 25.8801 44.4233 25.9767 44.29C26.0734 44.1533 26.1784 44.0417 26.2917 43.955C26.4317 43.8317 26.5951 43.7383 26.7817 43.675C26.9684 43.6083 27.1567 43.57 27.3467 43.56C27.5367 43.5467 27.7101 43.56 27.8667 43.6V44.29C27.6701 44.24 27.4551 44.2283 27.2217 44.255C26.9884 44.2817 26.7734 44.375 26.5767 44.535C26.3967 44.675 26.2617 44.8433 26.1717 45.04C26.0817 45.2333 26.0217 45.44 25.9917 45.66C25.9617 45.8767 25.9467 46.0917 25.9467 46.305V49H25.2117ZM30.1552 49.15C29.7485 49.15 29.4068 49.0767 29.1302 48.93C28.8568 48.7833 28.6518 48.5883 28.5152 48.345C28.3785 48.1017 28.3102 47.8367 28.3102 47.55C28.3102 47.2567 28.3685 47.0067 28.4852 46.8C28.6052 46.59 28.7668 46.4183 28.9702 46.285C29.1768 46.1517 29.4152 46.05 29.6852 45.98C29.9585 45.9133 30.2602 45.855 30.5902 45.805C30.9235 45.7517 31.2485 45.7067 31.5652 45.67C31.8852 45.63 32.1652 45.5917 32.4052 45.555L32.1452 45.715C32.1552 45.1817 32.0518 44.7867 31.8352 44.53C31.6185 44.2733 31.2418 44.145 30.7052 44.145C30.3352 44.145 30.0218 44.2283 29.7652 44.395C29.5118 44.5617 29.3335 44.825 29.2302 45.185L28.5152 44.975C28.6385 44.4917 28.8868 44.1167 29.2602 43.85C29.6335 43.5833 30.1185 43.45 30.7152 43.45C31.2085 43.45 31.6268 43.5433 31.9702 43.73C32.3168 43.9133 32.5618 44.18 32.7052 44.53C32.7718 44.6867 32.8152 44.8617 32.8352 45.055C32.8552 45.2483 32.8652 45.445 32.8652 45.645V49H32.2102V47.645L32.4002 47.725C32.2168 48.1883 31.9318 48.5417 31.5452 48.785C31.1585 49.0283 30.6952 49.15 30.1552 49.15ZM30.2402 48.515C30.5835 48.515 30.8835 48.4533 31.1402 48.33C31.3968 48.2067 31.6035 48.0383 31.7602 47.825C31.9168 47.6083 32.0185 47.365 32.0652 47.095C32.1052 46.9217 32.1268 46.7317 32.1302 46.525C32.1335 46.315 32.1352 46.1583 32.1352 46.055L32.4152 46.2C32.1652 46.2333 31.8935 46.2667 31.6002 46.3C31.3102 46.3333 31.0235 46.3717 30.7402 46.415C30.4602 46.4583 30.2068 46.51 29.9802 46.57C29.8268 46.6133 29.6785 46.675 29.5352 46.755C29.3918 46.8317 29.2735 46.935 29.1802 47.065C29.0902 47.195 29.0452 47.3567 29.0452 47.55C29.0452 47.7067 29.0835 47.8583 29.1602 48.005C29.2402 48.1517 29.3668 48.2733 29.5402 48.37C29.7168 48.4667 29.9502 48.515 30.2402 48.515ZM37.1068 49C36.8035 49.0633 36.5035 49.0883 36.2068 49.075C35.9135 49.0617 35.6501 48.9983 35.4168 48.885C35.1868 48.7717 35.0118 48.595 34.8918 48.355C34.7951 48.155 34.7418 47.9533 34.7318 47.75C34.7251 47.5433 34.7218 47.3083 34.7218 47.045V42.1H35.4518V47.015C35.4518 47.2417 35.4535 47.4317 35.4568 47.585C35.4635 47.735 35.4985 47.8683 35.5618 47.985C35.6818 48.2083 35.8718 48.3417 36.1318 48.385C36.3951 48.4283 36.7201 48.4183 37.1068 48.355V49ZM33.5668 44.23V43.6H37.1068V44.23H33.5668ZM40.2604 49.15C39.7337 49.15 39.2771 49.0333 38.8904 48.8C38.5071 48.5667 38.2087 48.2383 37.9954 47.815C37.7821 47.3917 37.6754 46.895 37.6754 46.325C37.6754 45.735 37.7804 45.225 37.9904 44.795C38.2004 44.365 38.4954 44.0333 38.8754 43.8C39.2587 43.5667 39.7104 43.45 40.2304 43.45C40.7637 43.45 41.2187 43.5733 41.5954 43.82C41.9721 44.0633 42.2571 44.4133 42.4504 44.87C42.6437 45.3267 42.7321 45.8717 42.7154 46.505H41.9654V46.245C41.9521 45.545 41.8004 45.0167 41.5104 44.66C41.2237 44.3033 40.8037 44.125 40.2504 44.125C39.6704 44.125 39.2254 44.3133 38.9154 44.69C38.6087 45.0667 38.4554 45.6033 38.4554 46.3C38.4554 46.98 38.6087 47.5083 38.9154 47.885C39.2254 48.2583 39.6637 48.445 40.2304 48.445C40.6171 48.445 40.9537 48.3567 41.2404 48.18C41.5304 48 41.7587 47.7417 41.9254 47.405L42.6104 47.67C42.3971 48.14 42.0821 48.505 41.6654 48.765C41.2521 49.0217 40.7837 49.15 40.2604 49.15ZM38.1954 46.505V45.89H42.3204V46.505H38.1954ZM48.742 49.15C48.0253 49.15 47.4203 48.9917 46.927 48.675C46.4336 48.355 46.0603 47.9133 45.807 47.35C45.5536 46.7867 45.427 46.1367 45.427 45.4C45.427 44.6633 45.5536 44.0133 45.807 43.45C46.0603 42.8867 46.4336 42.4467 46.927 42.13C47.4203 41.81 48.0253 41.65 48.742 41.65C49.462 41.65 50.067 41.81 50.557 42.13C51.0503 42.4467 51.4236 42.8867 51.677 43.45C51.9336 44.0133 52.062 44.6633 52.062 45.4C52.062 46.1367 51.9336 46.7867 51.677 47.35C51.4236 47.9133 51.0503 48.355 50.557 48.675C50.067 48.9917 49.462 49.15 48.742 49.15ZM48.742 48.445C49.3053 48.445 49.7753 48.3167 50.152 48.06C50.5286 47.8033 50.8103 47.4467 50.997 46.99C51.187 46.53 51.282 46 51.282 45.4C51.282 44.8 51.187 44.2717 50.997 43.815C50.8103 43.3583 50.5286 43.0017 50.152 42.745C49.7753 42.4883 49.3053 42.3583 48.742 42.355C48.1786 42.355 47.7103 42.4833 47.337 42.74C46.9636 42.9967 46.682 43.355 46.492 43.815C46.3053 44.2717 46.2103 44.8 46.207 45.4C46.2036 46 46.2953 46.5283 46.482 46.985C46.672 47.4383 46.9553 47.795 47.332 48.055C47.7086 48.3117 48.1786 48.4417 48.742 48.445ZM54.783 49V42.505H52.268V41.8H58.033V42.505H55.518V49H54.783ZM58.8348 49V41.8H61.6148C61.6848 41.8 61.7631 41.8033 61.8498 41.81C61.9398 41.8133 62.0298 41.8233 62.1198 41.84C62.4964 41.8967 62.8148 42.0283 63.0748 42.235C63.3381 42.4383 63.5364 42.695 63.6698 43.005C63.8064 43.315 63.8748 43.6583 63.8748 44.035C63.8748 44.4083 63.8064 44.75 63.6698 45.06C63.5331 45.37 63.3331 45.6283 63.0698 45.835C62.8098 46.0383 62.4931 46.1683 62.1198 46.225C62.0298 46.2383 61.9398 46.2483 61.8498 46.255C61.7631 46.2617 61.6848 46.265 61.6148 46.265H59.5698V49H58.8348ZM59.5698 45.565H61.5948C61.6548 45.565 61.7248 45.5617 61.8048 45.555C61.8848 45.5483 61.9631 45.5367 62.0398 45.52C62.2864 45.4667 62.4881 45.365 62.6448 45.215C62.8048 45.065 62.9231 44.8867 62.9998 44.68C63.0798 44.4733 63.1198 44.2583 63.1198 44.035C63.1198 43.8117 63.0798 43.5967 62.9998 43.39C62.9231 43.18 62.8048 43 62.6448 42.85C62.4881 42.7 62.2864 42.5983 62.0398 42.545C61.9631 42.5283 61.8848 42.5183 61.8048 42.515C61.7248 42.5083 61.6548 42.505 61.5948 42.505H59.5698V45.565Z" fill="#17C3CE"/>
</svg>
