<svg width="85" height="20" viewBox="0 0 85 20" fill="none" xmlns="http://www.w3.org/2000/svg">
<path d="M0.7 14V6.8H3.675C3.745 6.8 3.835 6.80333 3.945 6.81C4.055 6.81333 4.15667 6.82333 4.25 6.84C4.66667 6.90333 5.01 7.04167 5.28 7.255C5.55333 7.46833 5.755 7.73833 5.885 8.065C6.01833 8.38833 6.085 8.74833 6.085 9.145C6.085 9.73167 5.93667 10.2367 5.64 10.66C5.34333 11.08 4.88833 11.34 4.275 11.44L3.76 11.485H1.905V14H0.7ZM4.835 14L3.415 11.07L4.64 10.8L6.2 14H4.835ZM1.905 10.36H3.625C3.69167 10.36 3.76667 10.3567 3.85 10.35C3.93333 10.3433 4.01 10.33 4.08 10.31C4.28 10.26 4.43667 10.1717 4.55 10.045C4.66667 9.91833 4.74833 9.775 4.795 9.615C4.845 9.455 4.87 9.29833 4.87 9.145C4.87 8.99167 4.845 8.835 4.795 8.675C4.74833 8.51167 4.66667 8.36667 4.55 8.24C4.43667 8.11333 4.28 8.025 4.08 7.975C4.01 7.955 3.93333 7.94333 3.85 7.94C3.76667 7.93333 3.69167 7.93 3.625 7.93H1.905V10.36ZM9.75656 14.15C9.2099 14.15 8.7299 14.0317 8.31656 13.795C7.90323 13.5583 7.5799 13.23 7.34656 12.81C7.11656 12.39 7.00156 11.9067 7.00156 11.36C7.00156 10.77 7.1149 10.2583 7.34156 9.825C7.56823 9.38833 7.88323 9.05 8.28656 8.81C8.6899 8.57 9.15656 8.45 9.68656 8.45C10.2466 8.45 10.7216 8.58167 11.1116 8.845C11.5049 9.105 11.7966 9.47333 11.9866 9.95C12.1766 10.4267 12.2482 10.9883 12.2016 11.635H11.0066V11.195C11.0032 10.6083 10.8999 10.18 10.6966 9.91C10.4932 9.64 10.1732 9.505 9.73656 9.505C9.24323 9.505 8.87656 9.65833 8.63656 9.965C8.39656 10.2683 8.27656 10.7133 8.27656 11.3C8.27656 11.8467 8.39656 12.27 8.63656 12.57C8.87656 12.87 9.22656 13.02 9.68656 13.02C9.98323 13.02 10.2382 12.955 10.4516 12.825C10.6682 12.6917 10.8349 12.5 10.9516 12.25L12.1416 12.61C11.9349 13.0967 11.6149 13.475 11.1816 13.745C10.7516 14.015 10.2766 14.15 9.75656 14.15ZM7.89656 11.635V10.725H11.6116V11.635H7.89656ZM15.5872 16.55C15.2872 16.55 14.9989 16.5033 14.7222 16.41C14.4489 16.3167 14.2022 16.1817 13.9822 16.005C13.7622 15.8317 13.5822 15.6217 13.4422 15.375L14.5522 14.825C14.6555 15.0217 14.8005 15.1667 14.9872 15.26C15.1772 15.3567 15.3789 15.405 15.5922 15.405C15.8422 15.405 16.0655 15.36 16.2622 15.27C16.4589 15.1833 16.6105 15.0533 16.7172 14.88C16.8272 14.71 16.8789 14.4967 16.8722 14.24V12.705H17.0222V8.6H18.0772V14.26C18.0772 14.3967 18.0705 14.5267 18.0572 14.65C18.0472 14.7767 18.0289 14.9 18.0022 15.02C17.9222 15.37 17.7689 15.6567 17.5422 15.88C17.3155 16.1067 17.0339 16.275 16.6972 16.385C16.3639 16.495 15.9939 16.55 15.5872 16.55ZM15.4822 14.15C14.9855 14.15 14.5522 14.025 14.1822 13.775C13.8122 13.525 13.5255 13.185 13.3222 12.755C13.1189 12.325 13.0172 11.84 13.0172 11.3C13.0172 10.7533 13.1189 10.2667 13.3222 9.84C13.5289 9.41 13.8205 9.07167 14.1972 8.825C14.5739 8.575 15.0172 8.45 15.5272 8.45C16.0405 8.45 16.4705 8.575 16.8172 8.825C17.1672 9.07167 17.4322 9.41 17.6122 9.84C17.7922 10.27 17.8822 10.7567 17.8822 11.3C17.8822 11.8367 17.7922 12.3217 17.6122 12.755C17.4322 13.185 17.1639 13.525 16.8072 13.775C16.4505 14.025 16.0089 14.15 15.4822 14.15ZM15.6672 13.07C15.9905 13.07 16.2505 12.9967 16.4472 12.85C16.6472 12.7 16.7922 12.4917 16.8822 12.225C16.9755 11.9583 17.0222 11.65 17.0222 11.3C17.0222 10.9467 16.9755 10.6383 16.8822 10.375C16.7922 10.1083 16.6505 9.90167 16.4572 9.755C16.2639 9.605 16.0139 9.53 15.7072 9.53C15.3839 9.53 15.1172 9.61 14.9072 9.77C14.6972 9.92667 14.5422 10.14 14.4422 10.41C14.3422 10.6767 14.2922 10.9733 14.2922 11.3C14.2922 11.63 14.3405 11.93 14.4372 12.2C14.5372 12.4667 14.6889 12.6783 14.8922 12.835C15.0955 12.9917 15.3539 13.07 15.6672 13.07ZM21.9343 14.15C21.3876 14.15 20.9076 14.0317 20.4943 13.795C20.081 13.5583 19.7576 13.23 19.5243 12.81C19.2943 12.39 19.1793 11.9067 19.1793 11.36C19.1793 10.77 19.2926 10.2583 19.5193 9.825C19.746 9.38833 20.061 9.05 20.4643 8.81C20.8676 8.57 21.3343 8.45 21.8643 8.45C22.4243 8.45 22.8993 8.58167 23.2893 8.845C23.6826 9.105 23.9743 9.47333 24.1643 9.95C24.3543 10.4267 24.426 10.9883 24.3793 11.635H23.1843V11.195C23.181 10.6083 23.0776 10.18 22.8743 9.91C22.671 9.64 22.351 9.505 21.9143 9.505C21.421 9.505 21.0543 9.65833 20.8143 9.965C20.5743 10.2683 20.4543 10.7133 20.4543 11.3C20.4543 11.8467 20.5743 12.27 20.8143 12.57C21.0543 12.87 21.4043 13.02 21.8643 13.02C22.161 13.02 22.416 12.955 22.6293 12.825C22.846 12.6917 23.0126 12.5 23.1293 12.25L24.3193 12.61C24.1126 13.0967 23.7926 13.475 23.3593 13.745C22.9293 14.015 22.4543 14.15 21.9343 14.15ZM20.0743 11.635V10.725H23.7893V11.635H20.0743ZM29.0834 14V11.4C29.0834 11.23 29.0718 11.0417 29.0484 10.835C29.0251 10.6283 28.9701 10.43 28.8834 10.24C28.8001 10.0467 28.6734 9.88833 28.5034 9.765C28.3368 9.64167 28.1101 9.58 27.8234 9.58C27.6701 9.58 27.5184 9.605 27.3684 9.655C27.2184 9.705 27.0818 9.79167 26.9584 9.915C26.8384 10.035 26.7418 10.2017 26.6684 10.415C26.5951 10.625 26.5584 10.895 26.5584 11.225L25.8434 10.92C25.8434 10.46 25.9318 10.0433 26.1084 9.67C26.2884 9.29667 26.5518 9 26.8984 8.78C27.2451 8.55667 27.6718 8.445 28.1784 8.445C28.5784 8.445 28.9084 8.51167 29.1684 8.645C29.4284 8.77833 29.6351 8.94833 29.7884 9.155C29.9418 9.36167 30.0551 9.58167 30.1284 9.815C30.2018 10.0483 30.2484 10.27 30.2684 10.48C30.2918 10.6867 30.3034 10.855 30.3034 10.985V14H29.0834ZM25.3384 14V8.6H26.4134V10.275H26.5584V14H25.3384ZM33.9753 14.15C33.4286 14.15 32.9486 14.0317 32.5353 13.795C32.122 13.5583 31.7986 13.23 31.5653 12.81C31.3353 12.39 31.2203 11.9067 31.2203 11.36C31.2203 10.77 31.3336 10.2583 31.5603 9.825C31.787 9.38833 32.102 9.05 32.5053 8.81C32.9086 8.57 33.3753 8.45 33.9053 8.45C34.4653 8.45 34.9403 8.58167 35.3303 8.845C35.7236 9.105 36.0153 9.47333 36.2053 9.95C36.3953 10.4267 36.467 10.9883 36.4203 11.635H35.2253V11.195C35.222 10.6083 35.1186 10.18 34.9153 9.91C34.712 9.64 34.392 9.505 33.9553 9.505C33.462 9.505 33.0953 9.65833 32.8553 9.965C32.6153 10.2683 32.4953 10.7133 32.4953 11.3C32.4953 11.8467 32.6153 12.27 32.8553 12.57C33.0953 12.87 33.4453 13.02 33.9053 13.02C34.202 13.02 34.457 12.955 34.6703 12.825C34.887 12.6917 35.0536 12.5 35.1703 12.25L36.3603 12.61C36.1536 13.0967 35.8336 13.475 35.4003 13.745C34.9703 14.015 34.4953 14.15 33.9753 14.15ZM32.1153 11.635V10.725H35.8303V11.635H32.1153ZM37.5359 14V8.6H38.6009V9.915L38.4709 9.745C38.5376 9.565 38.6259 9.40167 38.7359 9.255C38.8493 9.105 38.9843 8.98167 39.1409 8.885C39.2743 8.795 39.4209 8.725 39.5809 8.675C39.7443 8.62167 39.9109 8.59 40.0809 8.58C40.2509 8.56667 40.4159 8.57333 40.5759 8.6V9.725C40.4159 9.67833 40.2309 9.66333 40.0209 9.68C39.8143 9.69667 39.6276 9.755 39.4609 9.855C39.2943 9.945 39.1576 10.06 39.0509 10.2C38.9476 10.34 38.8709 10.5 38.8209 10.68C38.7709 10.8567 38.7459 11.0483 38.7459 11.255V14H37.5359ZM42.9131 14.15C42.5231 14.15 42.1931 14.0767 41.9231 13.93C41.6531 13.78 41.4481 13.5817 41.3081 13.335C41.1715 13.0883 41.1031 12.8167 41.1031 12.52C41.1031 12.26 41.1465 12.0267 41.2331 11.82C41.3198 11.61 41.4531 11.43 41.6331 11.28C41.8131 11.1267 42.0465 11.0017 42.3331 10.905C42.5498 10.835 42.8031 10.7717 43.0931 10.715C43.3865 10.6583 43.7031 10.6067 44.0431 10.56C44.3865 10.51 44.7448 10.4567 45.1181 10.4L44.6881 10.645C44.6915 10.2717 44.6081 9.99667 44.4381 9.82C44.2681 9.64333 43.9815 9.555 43.5781 9.555C43.3348 9.555 43.0998 9.61167 42.8731 9.725C42.6465 9.83833 42.4881 10.0333 42.3981 10.31L41.2981 9.965C41.4315 9.50833 41.6848 9.14167 42.0581 8.865C42.4348 8.58833 42.9415 8.45 43.5781 8.45C44.0581 8.45 44.4798 8.52833 44.8431 8.685C45.2098 8.84167 45.4815 9.09833 45.6581 9.455C45.7548 9.645 45.8131 9.84 45.8331 10.04C45.8531 10.2367 45.8631 10.4517 45.8631 10.685V14H44.8081V12.83L44.9831 13.02C44.7398 13.41 44.4548 13.6967 44.1281 13.88C43.8048 14.06 43.3998 14.15 42.9131 14.15ZM43.1531 13.19C43.4265 13.19 43.6598 13.1417 43.8531 13.045C44.0465 12.9483 44.1998 12.83 44.3131 12.69C44.4298 12.55 44.5081 12.4183 44.5481 12.295C44.6115 12.1417 44.6465 11.9667 44.6531 11.77C44.6631 11.57 44.6681 11.4083 44.6681 11.285L45.0381 11.395C44.6748 11.4517 44.3631 11.5017 44.1031 11.545C43.8431 11.5883 43.6198 11.63 43.4331 11.67C43.2465 11.7067 43.0815 11.7483 42.9381 11.795C42.7981 11.845 42.6798 11.9033 42.5831 11.97C42.4865 12.0367 42.4115 12.1133 42.3581 12.2C42.3081 12.2867 42.2831 12.3883 42.2831 12.505C42.2831 12.6383 42.3165 12.7567 42.3831 12.86C42.4498 12.96 42.5465 13.04 42.6731 13.1C42.8031 13.16 42.9631 13.19 43.1531 13.19ZM50.3298 14C49.9732 14.0667 49.6232 14.095 49.2798 14.085C48.9398 14.0783 48.6348 14.0167 48.3648 13.9C48.0948 13.78 47.8898 13.5917 47.7498 13.335C47.6265 13.1017 47.5615 12.8633 47.5548 12.62C47.5482 12.3767 47.5448 12.1017 47.5448 11.795V7.1H48.7448V11.725C48.7448 11.9417 48.7465 12.1317 48.7498 12.295C48.7565 12.4583 48.7915 12.5917 48.8548 12.695C48.9748 12.895 49.1665 13.0067 49.4298 13.03C49.6932 13.0533 49.9932 13.04 50.3298 12.99V14ZM46.5648 9.545V8.6H50.3298V9.545H46.5648ZM53.6726 14.15C53.1259 14.15 52.6459 14.0317 52.2326 13.795C51.8192 13.5583 51.4959 13.23 51.2626 12.81C51.0326 12.39 50.9176 11.9067 50.9176 11.36C50.9176 10.77 51.0309 10.2583 51.2576 9.825C51.4842 9.38833 51.7992 9.05 52.2026 8.81C52.6059 8.57 53.0726 8.45 53.6026 8.45C54.1626 8.45 54.6376 8.58167 55.0276 8.845C55.4209 9.105 55.7126 9.47333 55.9026 9.95C56.0926 10.4267 56.1642 10.9883 56.1176 11.635H54.9226V11.195C54.9192 10.6083 54.8159 10.18 54.6126 9.91C54.4092 9.64 54.0892 9.505 53.6526 9.505C53.1592 9.505 52.7926 9.65833 52.5526 9.965C52.3126 10.2683 52.1926 10.7133 52.1926 11.3C52.1926 11.8467 52.3126 12.27 52.5526 12.57C52.7926 12.87 53.1426 13.02 53.6026 13.02C53.8992 13.02 54.1542 12.955 54.3676 12.825C54.5842 12.6917 54.7509 12.5 54.8676 12.25L56.0576 12.61C55.8509 13.0967 55.5309 13.475 55.0976 13.745C54.6676 14.015 54.1926 14.15 53.6726 14.15ZM51.8126 11.635V10.725H55.5276V11.635H51.8126Z" fill="#17C3CE"/>
<g clip-path="url(#clip0_42_3667)">
<path d="M81.0004 2.80005V6.40005L77.4004 6.39965" stroke="#17C3CE" stroke-width="1.5" stroke-miterlimit="10" stroke-linecap="round"/>
<path d="M68.1992 9.99995C68.1992 6.24395 71.2432 3.19995 74.9992 3.19995C77.0036 3.19995 78.8056 4.06675 80.05 5.44635C80.2972 5.72075 80.5228 6.01555 80.7232 6.32755" stroke="#17C3CE" stroke-width="1.5" stroke-miterlimit="10" stroke-linecap="round"/>
<path d="M69 17.2V13.6L72.6 13.6004" stroke="#17C3CE" stroke-width="1.5" stroke-miterlimit="10" stroke-linecap="round"/>
<path d="M81.8004 10C81.8004 13.756 78.7564 16.8 75.0004 16.8C72.996 16.8 71.194 15.9328 69.9496 14.5536C69.7024 14.2788 69.4768 13.9844 69.2764 13.6724" stroke="#17C3CE" stroke-width="1.5" stroke-miterlimit="10" stroke-linecap="round"/>
</g>
<defs>
<clipPath id="clip0_42_3667">
<rect width="20" height="20" fill="white" transform="translate(65)"/>
</clipPath>
</defs>
</svg>
