<svg width="20" height="20" viewBox="0 0 20 20" fill="none" xmlns="http://www.w3.org/2000/svg">
<path d="M10.0003 6.25004C9.2586 6.25004 8.53358 6.46997 7.91689 6.88202C7.30021 7.29408 6.81956 7.87975 6.53573 8.56497C6.2519 9.2502 6.17764 10.0042 6.32234 10.7316C6.46703 11.4591 6.82418 12.1272 7.34863 12.6517C7.87308 13.1761 8.54126 13.5333 9.26869 13.678C9.99612 13.8227 10.7501 13.7484 11.4353 13.4646C12.1206 13.1808 12.7062 12.7001 13.1183 12.0834C13.5303 11.4667 13.7503 10.7417 13.7503 10C13.7492 9.00579 13.3538 8.05256 12.6508 7.34953C11.9478 6.64649 10.9945 6.25107 10.0003 6.25004ZM10.0003 12.5C9.50583 12.5 9.02248 12.3534 8.61135 12.0787C8.20023 11.804 7.8798 11.4136 7.69058 10.9567C7.50136 10.4999 7.45185 9.99726 7.54832 9.51231C7.64478 9.02736 7.88288 8.5819 8.23251 8.23227C8.58214 7.88264 9.0276 7.64454 9.51255 7.54807C9.99751 7.45161 10.5002 7.50112 10.957 7.69034C11.4138 7.87956 11.8042 8.19999 12.079 8.61111C12.3537 9.02223 12.5003 9.50558 12.5003 10C12.5003 10.6631 12.2369 11.299 11.768 11.7678C11.2992 12.2366 10.6633 12.5 10.0003 12.5ZM16.8753 10.1688C16.8784 10.0563 16.8784 9.94379 16.8753 9.83129L18.0409 8.37504C18.102 8.29858 18.1443 8.20883 18.1644 8.11303C18.1845 8.01722 18.1818 7.91804 18.1565 7.82347C17.9654 7.10519 17.6796 6.41554 17.3065 5.77269C17.2577 5.68857 17.1899 5.617 17.1085 5.5637C17.0271 5.5104 16.9344 5.47683 16.8378 5.46566L14.9847 5.25941C14.9076 5.17816 14.8294 5.10004 14.7503 5.02504L14.5315 3.16722C14.5203 3.07051 14.4866 2.97777 14.4331 2.89639C14.3797 2.815 14.308 2.74723 14.2237 2.69847C13.5806 2.32609 12.891 2.04053 12.1729 1.84925C12.0783 1.8241 11.9791 1.82152 11.8833 1.84174C11.7875 1.86196 11.6978 1.90441 11.6214 1.96566L10.169 3.12504C10.0565 3.12504 9.94403 3.12504 9.83153 3.12504L8.37528 1.96175C8.29882 1.90064 8.20907 1.85833 8.11327 1.83825C8.01747 1.81816 7.91829 1.82086 7.82372 1.84613C7.10555 2.03756 6.41595 2.32338 5.77294 2.69613C5.68881 2.74498 5.61725 2.81279 5.56394 2.89417C5.51064 2.97555 5.47707 3.06824 5.4659 3.16488L5.25965 5.02113C5.1784 5.09873 5.10028 5.17686 5.02528 5.2555L3.16747 5.46879C3.07076 5.48004 2.97801 5.51373 2.89663 5.56717C2.81525 5.62061 2.74748 5.69233 2.69872 5.7766C2.32633 6.4197 2.04078 7.10929 1.8495 7.82738C1.82434 7.92201 1.82177 8.02122 1.84199 8.11703C1.86221 8.21284 1.90465 8.30255 1.9659 8.37894L3.12528 9.83129C3.12528 9.94379 3.12528 10.0563 3.12528 10.1688L1.962 11.625C1.90088 11.7015 1.85858 11.7912 1.83849 11.887C1.81841 11.9828 1.82111 12.082 1.84637 12.1766C2.03746 12.8949 2.3233 13.5845 2.69637 14.2274C2.74522 14.3115 2.81303 14.3831 2.89441 14.4364C2.97579 14.4897 3.06849 14.5232 3.16512 14.5344L5.01825 14.7407C5.09585 14.8219 5.17398 14.9 5.25262 14.975L5.46903 16.8328C5.48028 16.9296 5.51397 17.0223 5.56741 17.1037C5.62085 17.1851 5.69257 17.2528 5.77684 17.3016C6.41994 17.674 7.10953 17.9595 7.82762 18.1508C7.92225 18.176 8.02147 18.1785 8.11727 18.1583C8.21308 18.1381 8.30279 18.0957 8.37919 18.0344L9.83153 16.875C9.94403 16.8782 10.0565 16.8782 10.169 16.875L11.6253 18.0407C11.7017 18.1018 11.7915 18.1441 11.8873 18.1642C11.9831 18.1842 12.0823 18.1816 12.1768 18.1563C12.8951 17.9652 13.5848 17.6794 14.2276 17.3063C14.3118 17.2574 14.3833 17.1896 14.4366 17.1082C14.4899 17.0269 14.5235 16.9342 14.5347 16.8375L14.7409 14.9844C14.8222 14.9073 14.9003 14.8292 14.9753 14.75L16.8331 14.5313C16.9298 14.52 17.0225 14.4863 17.1039 14.4329C17.1853 14.3795 17.2531 14.3077 17.3018 14.2235C17.6742 13.5804 17.9598 12.8908 18.1511 12.1727C18.1762 12.0781 18.1788 11.9788 18.1586 11.883C18.1384 11.7872 18.0959 11.6975 18.0347 11.6211L16.8753 10.1688ZM15.6175 9.66097C15.6307 9.88682 15.6307 10.1133 15.6175 10.3391C15.6082 10.4937 15.6566 10.6463 15.7534 10.7672L16.862 12.1524C16.7348 12.5567 16.5719 12.9488 16.3753 13.3243L14.6097 13.5243C14.4559 13.5413 14.3139 13.6148 14.2112 13.7305C14.0608 13.8996 13.9007 14.0598 13.7315 14.2102C13.6158 14.3129 13.5423 14.4549 13.5253 14.6086L13.3292 16.3727C12.9538 16.5694 12.5616 16.7323 12.1573 16.8594L10.7714 15.7508C10.6605 15.6622 10.5227 15.614 10.3807 15.6141H10.3432C10.1174 15.6274 9.89097 15.6274 9.66512 15.6141C9.5105 15.6048 9.35793 15.6532 9.237 15.75L7.84794 16.8594C7.44367 16.7322 7.0515 16.5693 6.67606 16.3727L6.47606 14.6094C6.45899 14.4556 6.3855 14.3137 6.26981 14.211C6.10068 14.0606 5.94051 13.9004 5.79012 13.7313C5.68742 13.6156 5.54545 13.5421 5.39169 13.525L3.62762 13.3282C3.4309 12.9528 3.26801 12.5606 3.1409 12.1563L4.2495 10.7703C4.3463 10.6494 4.39474 10.4968 4.38544 10.3422C4.37216 10.1164 4.37216 9.88995 4.38544 9.6641C4.39474 9.50947 4.3463 9.3569 4.2495 9.23597L3.1409 7.84769C3.26811 7.44342 3.43099 7.05125 3.62762 6.67582L5.3909 6.47582C5.54467 6.45875 5.68663 6.38526 5.78934 6.26957C5.93973 6.10043 6.0999 5.94026 6.26903 5.78988C6.38518 5.6871 6.45897 5.54481 6.47606 5.39066L6.67215 3.62738C7.04755 3.43065 7.43972 3.26777 7.84403 3.14066L9.22997 4.24925C9.3509 4.34606 9.50347 4.3945 9.65809 4.38519C9.88394 4.37191 10.1104 4.37191 10.3362 4.38519C10.4908 4.3945 10.6434 4.34606 10.7643 4.24925L12.1526 3.14066C12.5569 3.26787 12.9491 3.43075 13.3245 3.62738L13.5245 5.39066C13.5416 5.54442 13.6151 5.68639 13.7307 5.7891C13.8999 5.93948 14.0601 6.09965 14.2104 6.26879C14.3131 6.38448 14.4551 6.45797 14.6089 6.47504L16.3729 6.67113C16.5697 7.04652 16.7325 7.4387 16.8597 7.843L15.7511 9.22894C15.6533 9.35089 15.6048 9.50503 15.6151 9.66097H15.6175Z" fill="#17C3CE"/>
</svg>
