<svg width="81" height="81" viewBox="0 0 81 81" fill="none" xmlns="http://www.w3.org/2000/svg">
<path d="M40.2501 2.11841C35.7554 2.11841 31.4448 3.84016 28.2665 6.9049C25.0883 9.96964 23.3027 14.1263 23.3027 18.4605V21.1842H28.9519V18.4605C28.9519 15.571 30.1422 12.7999 32.261 10.7568C34.3799 8.71361 37.2536 7.56578 40.2501 7.56578C43.2466 7.56578 46.1203 8.71361 48.2392 10.7568C50.358 12.7999 51.5483 15.571 51.5483 18.4605V21.1842H57.1975V18.4605C57.1975 14.1263 55.412 9.96964 52.2337 6.9049C49.0555 3.84016 44.7448 2.11841 40.2501 2.11841Z" fill="#17C3CE"/>
<path d="M60.375 30.1874H20.125C17.4563 30.1874 14.8968 31.2475 13.0097 33.1346C11.1227 35.0217 10.0625 37.5811 10.0625 40.2499V67.0832C10.0625 69.7519 11.1227 72.3114 13.0097 74.1985C14.8968 76.0856 17.4563 77.1457 20.125 77.1457H60.375C63.0437 77.1457 65.6032 76.0856 67.4903 74.1985C69.3773 72.3114 70.4375 69.7519 70.4375 67.0832V40.2499C70.4375 37.5811 69.3773 35.0217 67.4903 33.1346C65.6032 31.2475 63.0437 30.1874 60.375 30.1874ZM43.6042 56.1151V63.729C43.6042 64.6186 43.2508 65.4718 42.6218 66.1008C41.9927 66.7298 41.1396 67.0832 40.25 67.0832C39.3604 67.0832 38.5073 66.7298 37.8782 66.1008C37.2492 65.4718 36.8958 64.6186 36.8958 63.729V56.1151C35.6169 55.3767 34.6174 54.237 34.0523 52.8727C33.4872 51.5083 33.388 49.9957 33.7702 48.5693C34.1525 47.1428 34.9947 45.8824 36.1662 44.9834C37.3378 44.0844 38.7733 43.5972 40.25 43.5972C41.7267 43.5972 43.1622 44.0844 44.3338 44.9834C45.5053 45.8824 46.3475 47.1428 46.7298 48.5693C47.112 49.9957 47.0128 51.5083 46.4477 52.8727C45.8826 54.237 44.8831 55.3767 43.6042 56.1151Z" fill="#17C3CE"/>
</svg>
