<svg width="16" height="16" viewBox="0 0 16 16" fill="none" xmlns="http://www.w3.org/2000/svg">
<path d="M8.02608 11.2626C9.81383 11.2626 11.2631 9.81334 11.2631 8.02559C11.2631 6.23784 9.81383 4.78857 8.02608 4.78857C6.23832 4.78857 4.78906 6.23784 4.78906 8.02559C4.78906 9.81334 6.23832 11.2626 8.02608 11.2626Z" fill="#F8B62D"/>
<path d="M10.9759 8.02557C10.9659 9.24441 10.2021 10.3804 9.04396 10.7965C8.46659 11.0032 7.8396 11.0273 7.24808 10.8655C6.65656 10.7036 6.12916 10.3637 5.73747 9.89182C4.95417 8.944 4.86408 7.55796 5.49393 6.50746C6.12377 5.45695 7.39338 4.88322 8.60116 5.1302C9.26802 5.26925 9.86723 5.6323 10.2992 6.15901C10.7312 6.68572 10.97 7.34439 10.9759 8.02557C10.9789 8.39393 11.5515 8.3947 11.5484 8.02557C11.5421 7.30216 11.3161 6.59776 10.9002 6.0058C10.4843 5.41384 9.89834 4.9623 9.21993 4.71107C7.84267 4.20376 6.22264 4.65304 5.30078 5.79287C4.37891 6.9327 4.23997 8.56609 4.99921 9.83265C5.76266 11.1072 7.27314 11.7649 8.72789 11.4783C10.3598 11.1557 11.537 9.67309 11.5484 8.02557C11.5515 7.65721 10.9789 7.65683 10.9759 8.02557Z" fill="#231815"/>
<path d="M8.31184 3.49807V2.27656C8.31184 1.9082 7.73926 1.90743 7.73926 2.27656V3.49807C7.73926 3.86644 8.31184 3.8672 8.31184 3.49807Z" fill="#231815"/>
<path d="M6.00919 3.96L5.39843 2.90301C5.21406 2.58389 4.71934 2.87209 4.90219 3.19197L5.51295 4.24896C5.69732 4.56809 6.19203 4.27988 6.00919 3.96Z" fill="#231815"/>
<path d="M4.24962 5.51466L3.19263 4.9039C2.87275 4.71915 2.58416 5.21386 2.90367 5.40015L3.96066 6.0109C4.28054 6.19566 4.56912 5.70094 4.24962 5.51466Z" fill="#231815"/>
<path d="M3.49807 7.73938H2.27656C1.9082 7.73938 1.90743 8.31196 2.27656 8.31196H3.49807C3.86644 8.31196 3.8672 7.73938 3.49807 7.73938Z" fill="#231815"/>
<path d="M3.96049 10.0423L2.9035 10.6531C2.58438 10.8375 2.87258 11.3322 3.19246 11.1493L4.24945 10.5386C4.56857 10.3542 4.28037 9.85948 3.96049 10.0423Z" fill="#231815"/>
<path d="M5.51466 11.8025L4.9039 12.8595C4.71915 13.1793 5.21386 13.4679 5.40015 13.1484L6.0109 12.0914C6.19566 11.7715 5.70094 11.483 5.51466 11.8025Z" fill="#231815"/>
<path d="M7.73926 12.5533V13.7748C7.73926 14.1432 8.31184 14.1439 8.31184 13.7748V12.5533C8.31184 12.1849 7.73926 12.1842 7.73926 12.5533Z" fill="#231815"/>
<path d="M10.0428 12.0914L10.6536 13.1484C10.8379 13.4675 11.3327 13.1793 11.1498 12.8594L10.5391 11.8024C10.3547 11.4833 9.85997 11.7715 10.0428 12.0914Z" fill="#231815"/>
<path d="M11.8031 10.5366L12.8601 11.1474C13.18 11.3321 13.4685 10.8374 13.149 10.6511L12.092 10.0404C11.7722 9.85563 11.4836 10.3503 11.8031 10.5366Z" fill="#231815"/>
<path d="M12.5539 8.31196H13.7754C14.1438 8.31196 14.1445 7.73938 13.7754 7.73938H12.5539C12.1855 7.73938 12.1848 8.31196 12.5539 8.31196Z" fill="#231815"/>
<path d="M12.0919 6.00906L13.1489 5.39831C13.468 5.21393 13.1798 4.71922 12.8599 4.90207L11.8029 5.51282C11.4838 5.6972 11.772 6.19191 12.0919 6.00906Z" fill="#231815"/>
<path d="M10.5378 4.24889L11.1486 3.1919C11.3334 2.87201 10.8386 2.58343 10.6524 2.90293L10.0416 3.95992C9.85685 4.27981 10.3516 4.56839 10.5378 4.24889Z" fill="#231815"/>
</svg>
