<svg width="20" height="20" viewBox="0 0 20 20" fill="none" xmlns="http://www.w3.org/2000/svg">
<path d="M10.8321 5.59741H5.57031V6.45647H10.8321V5.59741Z" fill="#17C3CE"/>
<path d="M12.7699 5.78138L12.3092 5.29177L11.6836 5.88044L12.81 7.07759L14.4137 5.14685L13.7529 4.59802L12.7699 5.78138Z" fill="#17C3CE"/>
<path d="M10.8321 8.28186H5.57031V9.14092H10.8321V8.28186Z" fill="#17C3CE"/>
<path d="M12.7699 8.46595L12.3092 7.97634L11.6836 8.56501L12.81 9.76216L14.4137 7.83143L13.7529 7.28259L12.7699 8.46595Z" fill="#17C3CE"/>
<path d="M10.8321 10.9664H5.57031V11.8255H10.8321V10.9664Z" fill="#17C3CE"/>
<path d="M12.7699 11.1505L12.3092 10.6609L11.6836 11.2496L12.81 12.4467L14.4137 10.516L13.7529 9.96716L12.7699 11.1505Z" fill="#17C3CE"/>
<path d="M10.8321 13.651H5.57031V14.5101H10.8321V13.651Z" fill="#17C3CE"/>
<path d="M12.7699 13.8351L12.3092 13.3455L11.6836 13.9341L12.81 15.1313L14.4137 13.2006L13.7529 12.6517L12.7699 13.8351Z" fill="#17C3CE"/>
<path d="M16.2015 3.2349C16.2015 2.55286 15.6487 2 14.9666 2H5.03373C4.35169 2 3.79883 2.55286 3.79883 3.2349V16.7651C3.79883 17.4471 4.35169 18 5.03373 18H14.9666C15.6487 18 16.2015 17.4471 16.2015 16.7651V3.2349ZM15.3425 16.7651C15.3425 16.9727 15.1742 17.1409 14.9666 17.1409H5.03373C4.82616 17.1409 4.65789 16.9727 4.65789 16.7651V3.2349C4.65789 3.02733 4.82616 2.85906 5.03373 2.85906H14.9666C15.1742 2.85906 15.3425 3.02733 15.3425 3.2349V16.7651Z" fill="#17C3CE"/>
</svg>
