<svg width="13" height="23" viewBox="0 0 13 23" fill="none" xmlns="http://www.w3.org/2000/svg">
<path d="M12 9.125H10.5V2.375C10.4994 1.8779 10.3017 1.40133 9.95017 1.04983C9.59867 0.698331 9.1221 0.500595 8.625 0.5H1.875C1.3779 0.500595 0.901334 0.698331 0.549832 1.04983C0.19833 1.40133 0.000595447 1.8779 0 2.375V21.125C0.000595447 21.6221 0.19833 22.0987 0.549832 22.4502C0.901334 22.8017 1.3779 22.9994 1.875 23H8.625C9.1221 22.9994 9.59867 22.8017 9.95017 22.4502C10.3017 22.0987 10.4994 21.6221 10.5 21.125V11.375H12C12.1989 11.375 12.3897 11.296 12.5303 11.1553C12.671 11.0147 12.75 10.8239 12.75 10.625V9.875C12.75 9.67609 12.671 9.48532 12.5303 9.34467C12.3897 9.20402 12.1989 9.125 12 9.125ZM9.75 21.125C9.75 21.4234 9.63147 21.7095 9.42049 21.9205C9.20952 22.1315 8.92337 22.25 8.625 22.25H1.875C1.57663 22.25 1.29048 22.1315 1.0795 21.9205C0.868526 21.7095 0.75 21.4234 0.75 21.125V2.375C0.75 2.07663 0.868526 1.79048 1.0795 1.5795C1.29048 1.36853 1.57663 1.25 1.875 1.25H8.625C8.92337 1.25 9.20952 1.36853 9.42049 1.5795C9.63147 1.79048 9.75 2.07663 9.75 2.375V9.125H5.6955C5.44785 8.69606 5.06558 8.36081 4.60798 8.17127C4.15038 7.98173 3.64303 7.94847 3.1646 8.07667C2.68618 8.20486 2.26342 8.48734 1.9619 8.88029C1.66038 9.27324 1.49694 9.7547 1.49694 10.25C1.49694 10.7453 1.66038 11.2268 1.9619 11.6197C2.26342 12.0127 2.68618 12.2951 3.1646 12.4233C3.64303 12.5515 4.15038 12.5183 4.60798 12.3287C5.06558 12.1392 5.44785 11.8039 5.6955 11.375H9.75V21.125ZM5.25 10.25C5.25 10.5467 5.16203 10.8367 4.9972 11.0834C4.83238 11.33 4.59811 11.5223 4.32403 11.6358C4.04994 11.7494 3.74834 11.7791 3.45736 11.7212C3.16639 11.6633 2.89912 11.5204 2.68934 11.3107C2.47956 11.1009 2.3367 10.8336 2.27882 10.5426C2.22094 10.2517 2.25065 9.95006 2.36418 9.67597C2.47771 9.40189 2.66997 9.16762 2.91664 9.0028C3.16332 8.83797 3.45333 8.75 3.75 8.75C4.14782 8.75 4.52936 8.90804 4.81066 9.18934C5.09196 9.47064 5.25 9.85218 5.25 10.25ZM12 10.625H5.96625C6.01125 10.377 6.01125 10.123 5.96625 9.875H12V10.625Z" fill="#17C3CE"/>
</svg>
